<svg xmlns="http://www.w3.org/2000/svg" xmlns:xlink="http://www.w3.org/1999/xlink" width="2000" zoomAndPan="magnify" viewBox="0 0 1500 1499.999933" height="2000" preserveAspectRatio="xMidYMid meet" version="1.0"><defs><clipPath id="adf4796e61"><path d="M 0 191.25 L 1500 191.25 L 1500 1308.75 L 0 1308.75 Z M 0 191.25 " clip-rule="nonzero"/></clipPath></defs><g clip-path="url(#adf4796e61)"><path fill="#fffff5" d="M 623.238281 1198.074219 C 610.113281 1141.523438 575.226562 1081.796875 529.648438 1043.980469 L 408.519531 1116.644531 C 412.898438 1123.710938 417.054688 1128.910156 418.917969 1135.75 L 0.265625 1135.523438 L 0.0195312 982.984375 L 84.808594 982.902344 C 84.4375 965.664062 83.375 950.328125 79.75 933.210938 L 218.46875 897.953125 C 227.253906 841.175781 216.832031 770.660156 188.574219 720.207031 L 47.972656 741.113281 L 43.101562 709.847656 L 97.316406 701.617188 C 141.644531 522.625 256.675781 369.308594 414.25 279.199219 C 745.269531 89.90625 1166.503906 217.832031 1338.042969 557.617188 C 1406 692.21875 1426.597656 828.378906 1411.566406 983.167969 L 1499.691406 983.003906 L 1499.980469 1135.542969 L 865.171875 1135.484375 C 838.226562 1148.175781 813.023438 1158.25 784.808594 1166.667969 L 716.585938 1225.039062 C 710.378906 1254.605469 686.566406 1276.148438 656.304688 1277.210938 C 635.320312 1277.949219 616.238281 1268.695312 602.292969 1253.011719 L 527.988281 1308.515625 L 510.730469 1282.945312 L 623.238281 1198.117188 Z M 728.480469 376.820312 L 728.726562 223.15625 C 673.257812 224.714844 620.394531 232.78125 567.363281 248.445312 L 613.511719 395.332031 C 651.902344 384.335938 688.902344 379.238281 728.480469 376.84375 Z M 875.101562 395.1875 L 920.925781 248.792969 C 867.75 232.984375 815.171875 224.304688 760.277344 223.257812 L 760.21875 377.148438 C 800.039062 378.542969 837.59375 384.355469 875.082031 395.1875 Z M 583.4375 404.6875 L 537 257.597656 C 483.3125 276.515625 435.238281 300.839844 390.644531 331.347656 L 478.378906 458.046875 C 511.976562 436.117188 546.152344 418.078125 583.4375 404.6875 Z M 1009.765625 457.410156 L 1097.644531 331.039062 C 1050.613281 299.960938 1002.765625 276.042969 951.125 257.679688 L 904.832031 404.648438 C 942.566406 417.628906 976.679688 435.605469 1009.765625 457.433594 Z M 1119.0625 556.941406 L 1241.523438 464.230469 C 1206.367188 420.003906 1167.136719 382.308594 1123.421875 349.058594 L 1035.484375 475.367188 C 1067.015625 499.570312 1093.613281 525.839844 1119.0625 556.941406 Z M 368.9375 557.433594 C 393.796875 526.125 421.355469 499.855469 452.558594 475.902344 L 364.375 349.734375 C 319.371094 383.621094 280.816406 421.4375 246.621094 465.273438 L 368.917969 557.433594 Z M 241.972656 637.101562 C 270.453125 635.503906 295.25 632.328125 321.804688 627.683594 C 330.324219 612.242188 339.351562 598.503906 350.574219 582.71875 L 227.886719 490.152344 C 196.601562 535.277344 170.617188 583.355469 151.597656 635.707031 C 150.820312 637.835938 154.628906 639.679688 156.222656 639.578125 C 160.300781 639.3125 192.648438 604.894531 241.972656 637.101562 Z M 1195.066406 688.921875 L 1338.636719 636.917969 C 1318.53125 584.089844 1292.648438 535.195312 1260.542969 489.332031 L 1137.285156 582.65625 C 1161.078125 614.988281 1179.277344 650.019531 1195.066406 688.921875 Z M 432.207031 775.121094 C 415.683594 783.210938 401.167969 788.945312 383.640625 793.183594 L 374.121094 764.167969 L 412.777344 749.488281 C 445.433594 732.433594 469.042969 704.035156 478.214844 668.878906 C 515.273438 663.617188 549.734375 654.035156 580.773438 635.441406 C 593.183594 628.007812 603.113281 617.445312 606.511719 603.992188 C 608.148438 593.304688 605.875 583.085938 598.933594 576.617188 C 592.484375 570.597656 582.105469 566.75 572.421875 569.636719 L 447.953125 606.714844 C 406.675781 618.304688 369.511719 634.992188 333.558594 658.148438 L 269.308594 666.851562 C 304.117188 727.601562 317.792969 802.171875 317.035156 870.1875 C 316.851562 887.082031 314.292969 902.171875 311.363281 918.140625 L 377.96875 901.820312 C 435.914062 914.886719 495.125 915.007812 552.765625 901.964844 C 486.671875 884.867188 428.890625 848.136719 432.226562 775.121094 Z M 667.527344 837.367188 L 770.699219 739.640625 C 792.957031 718.550781 824.691406 716.15625 848.339844 732.71875 C 872.234375 749.46875 882.246094 778.542969 871.210938 807.921875 L 931.410156 769.019531 C 953.378906 754.832031 977.722656 749.816406 1003.789062 756.449219 C 1042.179688 766.132812 1072.808594 792.9375 1090.949219 827.722656 C 1108.660156 809.03125 1115.027344 784.828125 1111.773438 759.890625 C 1102.394531 688.082031 1036.691406 634.296875 973.238281 606.921875 L 1002.867188 664.292969 L 975.492188 678.113281 C 960.953125 646.519531 945.125 617.773438 924.140625 589.699219 C 904.300781 583.761719 884.542969 578.132812 863.675781 576.515625 C 887.59375 610.914062 906.46875 643.589844 922.359375 679.8125 L 894.328125 693.753906 C 875.082031 649.488281 850.820312 609.214844 819.183594 571.128906 C 793.796875 569.511719 768.9375 569.371094 743.261719 572.769531 C 774.550781 608.949219 799.121094 645.289062 820.640625 686.710938 L 793.695312 701.25 C 769.675781 655.304688 740.949219 614.539062 704.996094 578.152344 C 682.0625 581.878906 661.097656 587.714844 638.082031 596.191406 C 665.992188 625.777344 689.148438 656.140625 710.460938 690.132812 L 684.4375 706.632812 C 666.914062 679.382812 649.488281 655.34375 627.785156 632.1875 C 602.335938 669.613281 546.417969 687.714844 501.925781 695.699219 C 495.453125 715.992188 480.855469 729.523438 469.207031 746.765625 C 460.257812 759.992188 462.019531 782.515625 464.78125 797.871094 C 475.921875 859.625 571.109375 878.050781 628.359375 884.273438 C 640.171875 866.585938 651.925781 852.148438 667.527344 837.367188 Z M 209.847656 932.574219 C 214.558594 947.503906 226.882812 955.386719 240.171875 955.773438 C 271.765625 956.675781 282.390625 917.875 284.644531 884.417969 C 288.738281 823.363281 278.253906 762.222656 254.300781 706.164062 C 240.191406 673.175781 214.167969 642.730469 184.316406 658.578125 C 173.238281 664.457031 164.863281 677.804688 165.152344 691.789062 L 203.972656 686.546875 C 218.386719 704.851562 228.050781 725.019531 235.402344 747.398438 C 252.335938 798.957031 261.160156 871.046875 244.347656 922.789062 L 209.867188 932.597656 Z M 1228.992188 834.890625 L 1382.351562 825.839844 C 1377.785156 770.332031 1366.542969 717.976562 1349.40625 666.132812 L 1205.691406 718.589844 C 1218.632812 757.328125 1226.207031 795.433594 1229.011719 834.890625 Z M 1037.039062 1001.472656 C 1092.21875 959.109375 1093.613281 871.375 1045.476562 816.890625 C 1020.863281 789.046875 982.390625 773.609375 950.246094 794.308594 L 787.59375 899.058594 L 769.554688 873.445312 C 796.90625 856.183594 838.371094 818.960938 844 790.234375 C 846.785156 776.003906 839.292969 762.59375 828.050781 756.65625 C 815.664062 750.101562 802.148438 752.949219 791.871094 762.675781 L 698.585938 851.105469 C 673.464844 874.917969 654.769531 900.757812 633.90625 927.640625 L 579.175781 962.488281 C 636.753906 1002.558594 680.222656 1071.273438 704.195312 1135.320312 L 717.074219 1181.960938 L 770.699219 1137.714844 C 857.78125 1112.039062 965.234375 1056.59375 1037.058594 1001.453125 Z M 1379.238281 982.78125 C 1384.542969 939.824219 1385.566406 898.8125 1383.742188 857.207031 L 1230.179688 866.03125 L 1230.445312 983.109375 L 1379.238281 982.761719 Z M 217.382812 982.636719 C 198.730469 973.691406 185.175781 959.214844 178.359375 939.742188 L 114.742188 956.429688 L 116.132812 983.292969 L 217.402344 982.636719 Z M 627.824219 1233.4375 C 637.488281 1244.964844 651.414062 1248.8125 664.824219 1244.246094 C 692.609375 1234.765625 690.621094 1196.96875 681.265625 1166.238281 C 664.066406 1109.726562 634.519531 1057.738281 593.46875 1015.316406 C 567.34375 988.308594 526.332031 960.707031 501.554688 988.636719 C 492.28125 999.097656 490.398438 1014.210938 497.03125 1027.722656 L 529.6875 1008.210938 C 550.347656 1018.160156 566.238281 1032.699219 581.222656 1049.957031 C 617.238281 1091.460938 652.273438 1156.183594 656.285156 1211.34375 L 627.847656 1233.414062 Z M 388.902344 1091.75 L 469.246094 1044.511719 C 465.234375 1034.378906 463.371094 1025.878906 462.019531 1014.660156 L 31.695312 1014.617188 L 31.898438 1104.257812 L 396.601562 1103.847656 L 388.902344 1091.726562 Z M 1468.261719 1104.15625 L 1468.46875 1014.414062 L 1165.867188 1014.863281 L 1069.0625 1014.824219 L 1039.292969 1038.65625 C 1005.589844 1063.246094 969.71875 1082.308594 932.761719 1103.972656 L 1468.261719 1104.136719 Z M 1468.261719 1104.15625 " fill-opacity="1" fill-rule="nonzero"/></g></svg>