<svg version="1.1" id="Layer_1"
  xmlns="http://www.w3.org/2000/svg"
  xmlns:xlink="http://www.w3.org/1999/xlink" x="0px" y="0px" width="100%" viewBox="0 0 6251 6251" enable-background="new 0 0 6251 6251" xml:space="preserve">
  <path fill="#fffff5" opacity="1.000000" stroke="none" d="
M4134.564453,6081.080078 
	C4044.271240,6056.875488 3955.536621,6033.235352 3866.873535,6009.328613 
	C3722.298340,5970.345215 3577.723877,5931.355957 3433.244141,5892.020508 
	C3374.182861,5875.940430 3315.382812,5858.904297 3256.432129,5842.416016 
	C3244.904053,5839.191895 3233.312744,5836.093750 3221.600586,5833.659180 
	C3210.433350,5831.337402 3199.748047,5828.479492 3189.955078,5822.136719 
	C3185.090332,5818.985840 3178.946045,5817.591797 3173.208008,5816.041016 
	C2972.088135,5761.688965 2770.862549,5707.724121 2569.833496,5653.038086 
	C2373.981689,5599.759277 2178.147705,5546.400391 1982.636963,5491.888672 
	C1782.006958,5435.950195 1581.781372,5378.560547 1381.372192,5321.829590 
	C1186.091431,5266.549805 990.777588,5211.385742 795.524231,5156.008789 
	C650.833618,5114.972168 506.280731,5073.448242 361.531616,5032.620117 
	C311.715515,5018.568359 275.790924,4988.556641 252.293503,4942.890625 
	C235.666824,4910.577148 226.370285,4875.940430 219.976959,4840.445312 
	C209.702881,4783.404785 202.004669,4726.011230 196.355133,4668.313965 
	C193.826202,4642.486328 189.317795,4616.858887 186.230408,4591.078125 
	C182.588623,4560.666504 179.587402,4530.179688 176.173706,4499.740234 
	C171.349670,4456.724609 166.442505,4413.717773 161.495392,4370.716309 
	C157.081131,4332.346191 152.605820,4293.982910 148.081558,4255.625977 
	C143.245758,4214.627441 138.074966,4173.666504 133.515594,4132.637695 
	C130.059189,4101.534180 127.291283,4070.353271 124.291885,4039.199707 
	C120.782143,4002.745117 117.035614,3966.309326 113.978447,3929.816406 
	C110.860275,3892.594727 109.332138,3855.300049 115.947670,3818.255371 
	C117.694069,3808.476562 120.495186,3798.825928 123.549904,3789.354248 
	C129.025879,3772.375732 139.346375,3758.953857 153.795761,3748.259033 
	C204.671219,3710.603760 255.392853,3672.786377 307.697510,3637.065186 
	C417.725922,3561.921143 527.252075,3486.039062 636.739502,3410.106934 
	C693.672119,3370.622314 750.061584,3330.354736 806.738892,3290.501221 
	C836.700500,3269.433350 867.176819,3249.068359 896.626953,3227.312012 
	C919.119751,3210.694580 940.955261,3193.065186 962.033630,3174.682861 
	C997.556458,3143.703125 1037.753662,3120.484863 1080.066040,3100.503174 
	C1107.144409,3087.715820 1134.616089,3075.727539 1161.394165,3062.345703 
	C1209.126343,3038.492676 1254.014648,3009.768799 1298.496460,2980.406006 
	C1409.700806,2906.998047 1520.130493,2832.447266 1629.375244,2756.151123 
	C1645.211914,2745.091064 1660.553223,2733.322998 1676.156372,2721.927246 
	C1704.664917,2701.105713 1733.060425,2680.125244 1761.754028,2659.561279 
	C1801.937256,2630.763184 1838.969727,2598.225098 1874.689453,2564.212646 
	C1912.744873,2527.975830 1956.247681,2500.021484 2003.319336,2477.364014 
	C2044.167969,2457.701904 2086.772217,2442.412109 2129.754639,2428.154297 
	C2137.917969,2425.446533 2146.003418,2422.504639 2155.042236,2419.350830 
	C2152.190186,2412.415527 2149.920898,2406.355957 2147.247070,2400.480469 
	C2122.708008,2346.560547 2098.133789,2292.656006 2073.483887,2238.786621 
	C2067.669922,2226.080566 2061.751465,2213.413086 2055.505859,2200.915283 
	C2025.403564,2140.679443 2002.632690,2077.331787 1976.799683,2015.292725 
	C1943.543457,1935.426392 1911.859619,1854.902710 1878.322266,1775.156738 
	C1852.265869,1713.198853 1824.404297,1652.000244 1797.352295,1590.461060 
	C1763.066650,1512.466309 1729.405884,1434.189331 1694.325439,1356.553833 
	C1661.986328,1284.985474 1628.213135,1214.063599 1594.904785,1142.935181 
	C1572.884888,1095.912842 1550.989014,1048.824341 1528.252319,1002.148193 
	C1510.767456,966.253845 1492.348022,930.804077 1473.804321,895.439697 
	C1458.349121,865.965210 1442.729492,836.543030 1426.058960,807.748230 
	C1405.666260,772.524048 1394.112549,734.751404 1389.654663,694.538391 
	C1387.845703,678.220154 1390.350342,662.616028 1397.474731,647.880066 
	C1413.406494,614.926514 1428.964966,581.775391 1445.685181,549.223389 
	C1493.740723,455.666260 1542.312988,362.374695 1590.641602,268.957764 
	C1597.982666,254.767975 1605.369019,240.591599 1612.270996,226.186951 
	C1622.432129,204.980377 1638.067871,189.036179 1658.507446,177.947861 
	C1683.302368,164.496826 1709.626709,155.412231 1737.888794,152.628860 
	C1773.675537,149.104401 1809.455811,145.508484 1845.256470,142.129761 
	C1855.850708,141.129913 1866.503784,140.214386 1877.131104,140.200974 
	C1911.119629,140.158051 1945.127075,139.933441 1979.092896,140.939941 
	C2022.996826,142.240952 2066.862549,144.783920 2110.753662,146.567032 
	C2159.318848,148.539993 2207.909180,149.940598 2256.460205,152.195694 
	C2291.031494,153.801498 2325.549561,156.531479 2360.105225,158.517654 
	C2378.054932,159.549377 2396.028809,160.319824 2414.002686,160.725769 
	C2431.975098,161.131699 2449.946777,160.385712 2467.846680,163.282639 
	C2476.346924,164.658340 2485.116211,164.494263 2493.771729,164.768112 
	C2531.039795,165.947189 2568.351318,166.297668 2605.571289,168.332153 
	C2652.760254,170.911591 2699.871826,174.889313 2747.024902,178.149353 
	C2774.259766,180.032303 2801.516357,181.603745 2828.752441,183.468918 
	C2865.938232,186.015442 2903.105469,188.831650 2940.298340,191.263580 
	C2951.578613,192.001175 2962.942627,192.449036 2974.222900,191.968750 
	C2992.293457,191.199371 3010.064453,192.198944 3027.855469,195.795502 
	C3057.318848,201.751633 3087.408691,201.825150 3117.261719,204.037918 
	C3166.394287,207.679733 3215.521484,211.435593 3264.686523,214.586044 
	C3319.162842,218.076813 3373.682129,220.895477 3428.177246,224.099457 
	C3454.098145,225.623428 3480.020996,227.163391 3505.917480,229.046021 
	C3556.387939,232.715118 3606.830566,236.764908 3657.302734,240.408768 
	C3715.734619,244.627228 3774.263916,247.699600 3832.604980,252.905075 
	C3885.672607,257.640045 3938.718018,262.099121 3991.929443,264.986267 
	C4035.127930,267.330109 4078.204346,271.838989 4121.373535,274.824677 
	C4173.849609,278.454010 4226.381836,281.255524 4278.859375,284.864349 
	C4318.708984,287.604767 4358.513672,290.998383 4398.331055,294.198242 
	C4418.243164,295.798462 4438.107910,298.209259 4458.046875,299.221375 
	C4514.628906,302.093475 4570.799805,309.281342 4627.154785,314.536041 
	C4666.270020,318.183258 4705.478027,320.825562 4744.625977,324.138062 
	C4778.468750,327.001617 4812.279785,330.242218 4846.115723,333.192780 
	C4870.652344,335.332428 4895.189453,337.519806 4919.757812,339.232452 
	C4947.658203,341.177368 4975.618652,342.274902 5003.506836,344.362183 
	C5039.363281,347.045868 5075.177734,350.294891 5111.001953,353.402740 
	C5132.890137,355.301636 5154.754883,357.478546 5176.643066,359.380859 
	C5236.345703,364.569550 5296.052734,369.720306 5355.765137,374.796265 
	C5375.667969,376.488129 5395.569824,378.511444 5415.515625,379.310883 
	C5445.553711,380.514832 5475.121094,385.390533 5504.810059,389.377502 
	C5518.667969,391.238403 5532.416992,394.005890 5546.307129,395.512634 
	C5595.577637,400.857239 5634.071289,424.620667 5663.969727,463.395386 
	C5680.780762,485.197052 5693.264648,509.422668 5703.491699,534.847778 
	C5732.824707,607.771790 5757.908203,682.171692 5779.580078,757.697632 
	C5809.870117,863.258545 5837.986328,969.396057 5863.747070,1076.168457 
	C5890.598633,1187.462158 5918.617188,1298.474365 5945.451660,1409.771851 
	C5968.073730,1503.597046 5989.779785,1597.643555 6011.800293,1691.613403 
	C6032.302246,1779.104614 6052.709961,1866.617920 6073.067383,1954.142822 
	C6074.721680,1961.256592 6075.679688,1968.533203 6076.944336,1975.736938 
	C6078.648438,1985.441284 6078.893066,1995.379395 6085.122070,2004.028564 
	C6087.634277,2007.517700 6087.702637,2012.844727 6088.628418,2017.387207 
	C6101.524902,2080.665039 6114.594727,2143.908447 6127.149414,2207.254150 
	C6133.750000,2240.557129 6140.526367,2273.889160 6145.219727,2307.487793 
	C6150.005859,2341.748779 6152.541504,2376.333740 6155.683105,2410.811523 
	C6158.999512,2447.208740 6152.487793,2482.585938 6142.667969,2517.340820 
	C6122.763184,2587.786621 6102.715820,2658.198730 6081.858887,2728.366699 
	C6064.973633,2785.170410 6043.723633,2840.502686 6022.703613,2895.880859 
	C6000.504883,2954.365234 5978.157227,3012.793457 5955.939941,3071.270996 
	C5953.814453,3076.865967 5952.141113,3082.633545 5950.288086,3088.330566 
	C5946.472168,3100.056641 5946.440918,3111.791016 5949.447754,3123.766846 
	C5953.500000,3139.909180 5956.629883,3156.290527 5960.965820,3172.350830 
	C5963.613770,3182.161865 5964.440918,3191.933350 5964.408203,3201.977783 
	C5964.117188,3290.634277 5963.978027,3379.291016 5963.681152,3467.947510 
	C5963.504883,3520.599609 5963.317383,3573.253418 5962.795410,3625.902832 
	C5961.903809,3715.834961 5960.778320,3805.764893 5959.633301,3895.694092 
	C5959.548828,3902.326416 5958.555664,3908.950684 5957.918945,3915.572266 
	C5956.198730,3933.467285 5954.222168,3951.274658 5955.485840,3969.386719 
	C5957.581543,3999.419922 5953.641602,4029.255127 5950.952148,4059.104980 
	C5948.741699,4083.631836 5946.821289,4108.192383 5944.106445,4132.663574 
	C5942.421875,4147.847656 5939.853027,4162.959961 5937.033203,4177.983398 
	C5933.811523,4195.149902 5926.902344,4211.004395 5918.101074,4226.047852 
	C5902.631348,4252.491211 5887.497559,4279.138672 5871.571777,4305.303711 
	C5863.621582,4318.365723 5854.497559,4330.746094 5845.451172,4343.103027 
	C5772.998047,4442.076660 5695.971191,4537.512207 5620.179688,4633.900391 
	C5517.612793,4764.339844 5414.027832,4893.979980 5313.809570,5026.256348 
	C5288.459473,5059.715332 5261.998535,5092.333984 5236.010742,5125.308594 
	C5231.505859,5131.024902 5227.517578,5137.427734 5219.528809,5139.009766 
	C5214.966309,5139.913086 5213.905273,5144.000977 5211.663086,5147.271973 
	C5202.263672,5160.986328 5193.019531,5174.869629 5182.642090,5187.829590 
	C5176.057617,5196.053711 5167.821777,5203.034668 5159.884766,5210.075195 
	C5151.344238,5217.650391 5143.164062,5225.053711 5141.277832,5237.313965 
	C5140.720703,5240.933594 5137.951660,5244.482910 5135.499512,5247.498047 
	C5115.325195,5272.307129 5094.592285,5296.670898 5074.776855,5321.760254 
	C5027.684082,5381.385254 4980.488770,5440.904297 4928.718262,5496.619629 
	C4925.593750,5499.982422 4921.832031,5503.681641 4920.753906,5507.842773 
	C4917.580566,5520.092285 4909.175781,5528.451172 4901.624023,5537.789551 
	C4863.925781,5584.405273 4824.694824,5629.822266 4790.281738,5679.029297 
	C4787.990234,5682.305176 4785.901367,5685.795898 4783.191895,5688.695312 
	C4743.545410,5731.122070 4709.762207,5778.349121 4673.091797,5823.207520 
	C4644.411133,5858.291992 4617.323730,5894.709473 4587.946777,5929.186523 
	C4556.421387,5966.185059 4523.137207,6001.690918 4490.432617,6037.677734 
	C4478.336426,6050.987793 4465.565430,6063.682129 4453.351074,6076.886719 
	C4427.977051,6104.317871 4395.734375,6116.827637 4359.383301,6120.014160 
	C4323.211914,6123.184570 4287.506348,6119.463867 4252.335449,6110.779785 
	C4213.564453,6101.207031 4174.878418,6091.291504 4134.564453,6081.080078 
M4342.780273,5118.021484 
	C4342.241211,5070.068359 4341.875488,5022.112305 4341.069824,4974.163574 
	C4340.788574,4957.404297 4341.823730,4940.908203 4346.027344,4924.647949 
	C4346.284668,4923.653809 4345.406738,4922.366211 4344.965332,4920.914062 
	C4343.403809,4920.101562 4341.751953,4918.871094 4339.898926,4918.332031 
	C4309.241211,4909.412598 4278.838867,4899.410156 4247.826660,4891.951660 
	C4161.130371,4871.101562 4074.063721,4851.792969 3987.356201,4830.989258 
	C3860.538574,4800.561523 3733.916016,4769.321289 3607.192383,4738.500977 
	C3461.067139,4702.962402 3314.953857,4667.372559 3168.772949,4632.062988 
	C3090.494629,4613.154297 3012.102051,4594.717773 2933.726074,4576.216309 
	C2901.999268,4568.727051 2870.189453,4561.586914 2838.395752,4554.385254 
	C2824.736572,4551.290527 2811.274902,4547.894043 2798.892578,4540.875000 
	C2794.383057,4538.318359 2788.988281,4537.044922 2783.835938,4535.940430 
	C2677.117188,4513.069336 2570.308105,4490.615234 2463.685303,4467.306641 
	C2437.187988,4461.514648 2409.786865,4458.730469 2384.808838,4446.846191 
	C2382.439209,4445.718750 2379.717285,4445.292480 2377.126953,4444.674316 
	C2325.347168,4432.321289 2273.554688,4420.022461 2221.781494,4407.642578 
	C2091.684570,4376.533691 1961.590698,4345.413086 1831.506226,4314.252441 
	C1700.136597,4282.784668 1568.816772,4251.107910 1437.404175,4219.820801 
	C1350.651489,4199.166016 1263.664185,4179.489746 1176.980713,4158.553711 
	C1078.658936,4134.806152 980.678833,4109.641602 882.327942,4086.018066 
	C787.855530,4063.326660 693.094849,4041.835938 598.468689,4019.784180 
	C512.277466,3999.697998 426.009674,3979.929688 339.952301,3959.284912 
	C303.751312,3950.600586 268.000061,3940.039795 232.054504,3930.294434 
	C225.550278,3928.531250 220.432922,3932.426514 220.584274,3939.645996 
	C221.128479,3965.606201 222.218155,3991.513428 225.488220,4017.332764 
	C228.329926,4039.770508 230.433502,4062.315674 232.289108,4084.860352 
	C234.418076,4110.726562 235.559097,4136.674805 237.807922,4162.528809 
	C239.364700,4180.426270 242.044357,4198.228027 244.268082,4216.066406 
	C249.045853,4254.391602 253.799332,4292.719727 258.667877,4331.033691 
	C261.773834,4355.476562 265.307770,4379.867676 268.224670,4404.332031 
	C273.191223,4445.987305 277.645325,4487.703125 282.670959,4529.350586 
	C285.143524,4549.839844 288.938538,4570.174805 291.212341,4590.681641 
	C295.834839,4632.370117 299.328400,4674.187012 304.229462,4715.840332 
	C308.897675,4755.514160 314.348694,4795.109863 320.270386,4834.617188 
	C323.535126,4856.398926 329.311951,4877.638184 341.449677,4896.542969 
	C348.886261,4908.125488 358.662140,4915.671875 372.351807,4919.866699 
	C577.836975,4982.838379 783.982239,5043.559082 990.704529,5102.334473 
	C1160.942627,5150.737305 1331.100220,5199.423340 1501.372559,5247.705078 
	C1694.706909,5302.526367 1888.113525,5357.092773 2081.519287,5411.661133 
	C2190.388428,5442.377930 2299.090088,5473.722656 2408.271729,5503.291504 
	C2625.352295,5562.083496 2842.821533,5619.441406 3059.918457,5678.173828 
	C3200.586670,5716.230469 3340.771729,5756.070312 3481.371826,5794.383301 
	C3636.079102,5836.541016 3789.874268,5882.068848 3945.641846,5920.320801 
	C3949.436523,5921.252441 3952.907959,5923.459961 3956.571777,5924.971680 
	C3962.639648,5927.475586 3968.559570,5930.586914 3974.857178,5932.247070 
	C4044.340332,5950.570312 4113.689453,5969.461426 4183.485840,5986.513184 
	C4224.175293,5996.454102 4265.565918,6003.569336 4306.730469,6011.491211 
	C4319.987793,6014.042969 4325.855469,6009.885742 4327.890625,5996.855469 
	C4329.630371,5985.721191 4330.414551,5974.364746 4330.669922,5963.085449 
	C4331.451660,5928.493652 4328.590820,5893.733398 4335.961914,5859.472656 
	C4336.376465,5857.545898 4336.231934,5855.490723 4336.273926,5853.493652 
	C4337.113281,5813.551270 4338.107910,5773.610840 4338.721680,5733.665039 
	C4339.253418,5699.018066 4339.333008,5664.364258 4339.646973,5629.713379 
	C4339.846191,5607.724609 4339.933105,5585.733398 4340.377441,5563.749023 
	C4341.359863,5515.150879 4343.215820,5466.560059 4343.485840,5417.958984 
	C4343.994141,5326.634766 4343.650391,5235.306152 4343.598633,5143.979004 
	C4343.594238,5136.660645 4343.109375,5129.342285 4342.780273,5118.021484 
M4820.950195,2409.368896 
	C4839.432617,2411.833252 4857.928711,2414.201172 4876.395020,2416.779297 
	C4939.701172,2425.617920 5002.886719,2435.440186 5066.325684,2443.181152 
	C5143.679688,2452.619873 5220.476074,2465.629639 5297.515625,2477.070801 
	C5354.805176,2485.579346 5412.001465,2494.713135 5469.249512,2503.503662 
	C5535.057129,2513.608643 5600.873535,2523.654053 5666.694824,2533.671875 
	C5669.681152,2534.126221 5673.037598,2536.347412 5676.071777,2531.924805 
	C5675.752441,2529.268311 5675.637207,2525.957031 5674.931152,2522.776367 
	C5647.397461,2398.675049 5620.191895,2274.499023 5592.124512,2150.518066 
	C5562.734863,2020.701294 5533.562988,1890.819946 5502.378418,1761.429077 
	C5466.204102,1611.335693 5427.834473,1461.772095 5390.640625,1311.923218 
	C5375.572754,1251.216553 5361.149414,1190.350342 5346.301758,1129.588745 
	C5343.146484,1116.676758 5339.794434,1103.746826 5330.812012,1092.681519 
	C5283.418457,1087.204468 5235.819824,1081.588257 5188.188477,1076.266235 
	C5172.985352,1074.567383 5157.712891,1073.351318 5142.440430,1072.434937 
	C5111.207031,1070.560913 5079.941406,1069.214600 5048.709961,1067.312012 
	C5027.449707,1066.016846 5006.194824,1064.463379 4984.990234,1062.467651 
	C4938.589355,1058.100952 4892.250977,1053.059082 4845.834473,1048.878418 
	C4777.525391,1042.726196 4709.170898,1037.075195 4640.833984,1031.232544 
	C4621.596680,1029.587769 4602.351074,1028.046265 4583.113281,1026.412109 
	C4524.733398,1021.453003 4466.356445,1016.472229 4407.978027,1011.499084 
	C4372.818359,1008.503967 4337.648438,1005.618958 4302.501465,1002.480835 
	C4265.374512,999.165833 4228.288574,995.387756 4191.149902,992.217468 
	C4150.685547,988.763306 4110.174316,985.867676 4069.697510,982.557922 
	C4025.903564,978.976990 3982.131104,975.133972 3938.338623,971.534546 
	C3916.447754,969.735352 3894.519043,968.390808 3872.631836,966.550293 
	C3813.585449,961.585083 3754.549072,956.499207 3695.514893,951.386841 
	C3673.628418,949.491455 3651.759033,947.397461 3629.883301,945.378967 
	C3594.739746,942.136353 3559.607666,938.764771 3524.451660,935.663086 
	C3487.973877,932.444763 3451.470703,929.513062 3414.983643,926.400024 
	C3377.842041,923.231079 3340.715576,919.878601 3303.564941,916.817993 
	C3264.418457,913.592834 3225.245361,910.691467 3186.096680,907.492554 
	C3172.828613,906.408386 3159.622559,904.531555 3146.348389,903.564392 
	C3102.532471,900.371887 3058.696533,897.450806 3014.871582,894.380737 
	C2997.609375,893.171509 2980.305664,892.309692 2963.107910,890.474731 
	C2925.382568,886.449768 2887.818604,881.204529 2849.846436,879.236023 
	C2811.965332,877.272339 2774.165527,873.624817 2736.356201,870.412476 
	C2695.884277,866.974060 2655.450195,863.095947 2614.985596,859.570068 
	C2581.160156,856.622681 2547.208984,854.812439 2513.500244,850.893250 
	C2449.966797,843.506287 2386.253174,838.880127 2322.413086,835.487610 
	C2305.135986,834.569458 2287.684570,833.907715 2270.710205,830.892883 
	C2223.939697,822.585999 2176.510498,823.647705 2129.452881,819.646545 
	C2125.238525,819.288147 2120.855469,820.914551 2116.644775,821.603882 
	C2116.644775,825.001221 2116.026367,827.201111 2116.731934,828.826355 
	C2304.315918,1260.966797 2492.945312,1692.655762 2676.472656,2126.585938 
	C2686.719727,2128.277588 2696.534180,2130.030762 2706.390625,2131.503418 
	C2766.311035,2140.455566 2826.213623,2149.531494 2886.179932,2158.167236 
	C2912.534668,2161.962158 2939.009277,2164.951660 2965.458252,2168.059570 
	C2991.914307,2171.168213 3018.680664,2172.461426 3044.826416,2177.214844 
	C3100.585693,2187.351318 3156.931641,2192.743408 3213.014648,2200.234131 
	C3248.000732,2204.907227 3283.047119,2209.127930 3318.063721,2213.572998 
	C3356.373291,2218.435547 3394.692139,2223.230957 3432.983887,2228.229492 
	C3458.728027,2231.590332 3484.409668,2235.433350 3510.161621,2238.728027 
	C3536.568848,2242.106689 3563.031494,2245.051758 3589.463379,2248.239990 
	C3617.226807,2251.588867 3645.023438,2254.697754 3672.731934,2258.455566 
	C3714.299316,2264.093506 3755.773926,2270.418457 3797.343018,2276.044678 
	C3827.029053,2280.062744 3856.805908,2283.407715 3886.541016,2287.064941 
	C3912.972900,2290.315918 3939.393311,2293.664062 3965.836426,2296.820068 
	C3990.296387,2299.739258 4014.885254,2301.759766 4039.232178,2305.411133 
	C4095.205811,2313.804932 4151.073242,2322.776611 4207.352051,2329.141357 
	C4268.887695,2336.100586 4330.292480,2344.245117 4391.705566,2352.247803 
	C4426.032715,2356.721191 4460.248535,2362.038086 4494.536133,2366.823730 
	C4527.509277,2371.426025 4560.494629,2375.945312 4593.501465,2380.295654 
	C4627.830078,2384.820801 4662.188965,2389.115479 4696.538086,2393.481689 
	C4736.833496,2398.603760 4777.133789,2403.693848 4820.950195,2409.368896 
M4961.272461,444.178955 
	C4945.354980,442.850555 4929.433105,441.575012 4913.520996,440.183105 
	C4877.038086,436.991791 4840.566406,433.674347 4804.079102,430.537140 
	C4762.949219,427.000732 4721.812012,423.546448 4680.668945,420.166382 
	C4641.515137,416.949738 4602.355469,413.807526 4563.188477,410.755096 
	C4516.729004,407.134399 4470.265137,403.560669 4423.791504,400.121857 
	C4377.303711,396.681976 4330.792480,393.559998 4284.308594,390.064026 
	C4242.483887,386.918549 4200.704102,383.162048 4158.867188,380.209991 
	C4112.380371,376.929810 4065.815674,374.725708 4019.349365,371.203094 
	C3954.938232,366.320038 3890.591309,360.593842 3826.208008,355.335114 
	C3803.645020,353.492218 3781.068848,351.767242 3758.477051,350.331085 
	C3703.336182,346.825867 3648.179199,343.570465 3593.035156,340.114288 
	C3565.787354,338.406525 3538.543701,336.613373 3511.315674,334.616943 
	C3467.490723,331.403564 3423.687744,327.886963 3379.861328,324.689270 
	C3334.703613,321.394318 3289.530029,318.308441 3244.361328,315.165985 
	C3189.235840,311.330750 3134.108154,307.533417 3078.981445,303.716675 
	C3053.074951,301.923004 3027.166992,300.147858 3001.262939,298.318878 
	C2953.448975,294.942993 2905.647461,291.378723 2857.821045,288.191223 
	C2824.605957,285.977539 2791.347412,284.415619 2758.127197,282.270081 
	C2736.871826,280.897339 2715.609375,279.396790 2694.423096,277.239807 
	C2651.992432,272.919983 2609.587402,268.649323 2566.833740,270.273315 
	C2559.520508,270.551117 2552.162842,270.384979 2544.854248,269.948425 
	C2517.616455,268.321442 2490.398438,266.351776 2463.156738,264.795776 
	C2444.542236,263.732574 2425.887207,263.370422 2407.273682,262.291107 
	C2374.705811,260.402588 2342.169189,257.965363 2309.595703,256.195099 
	C2269.048584,253.991486 2228.490479,251.883698 2187.913574,250.362656 
	C2130.695801,248.217819 2073.460205,246.499985 2016.223877,244.905045 
	C1992.245361,244.236862 1968.235229,244.692596 1944.258423,243.990250 
	C1928.309082,243.523041 1912.383545,242.034119 1896.465088,240.777527 
	C1878.545044,239.362915 1860.575073,235.859482 1842.751343,236.537628 
	C1810.181885,237.776794 1777.592285,240.488922 1745.223145,244.360336 
	C1718.623047,247.541748 1699.723877,261.963898 1692.113770,288.926300 
	C1690.492920,294.669128 1689.133545,300.854126 1685.951904,305.723572 
	C1672.883911,325.724823 1668.462769,350.338928 1652.050171,368.546967 
	C1649.473145,371.405701 1648.306274,375.564026 1646.599609,379.174500 
	C1604.504761,468.223663 1562.410522,557.273193 1520.397583,646.361145 
	C1518.781372,649.788452 1517.973999,653.597229 1516.897217,656.898682 
	C1526.989014,664.153320 1537.847534,664.813354 1548.341675,665.800110 
	C1574.838745,668.291565 1601.392700,670.202576 1627.938354,672.147339 
	C1652.503296,673.946960 1677.086182,675.501892 1701.662598,677.141296 
	C1756.796875,680.819153 1811.931763,684.484924 1867.066895,688.148376 
	C1874.371826,688.633728 1881.704346,688.836243 1888.982300,689.578552 
	C1936.666626,694.441772 1984.224976,700.646545 2032.191406,702.422119 
	C2049.492920,703.062500 2066.881592,703.262268 2084.049805,705.234436 
	C2131.676025,710.705505 2179.218262,716.885010 2227.204346,718.360901 
	C2275.834229,719.856689 2324.137939,725.674988 2372.601562,729.368530 
	C2417.080078,732.758301 2461.526123,736.573547 2505.993164,740.117432 
	C2545.151123,743.238159 2584.328613,746.118652 2623.478516,749.333862 
	C2662.628662,752.549072 2701.696533,757.516846 2740.905762,759.080383 
	C2800.861572,761.471313 2860.442871,767.916809 2920.148193,772.957031 
	C2984.509033,778.390320 3048.718994,785.601990 3113.070312,791.161499 
	C3172.108154,796.262024 3231.250732,800.146545 3290.339111,804.669922 
	C3310.255859,806.194519 3330.146240,808.061279 3350.052490,809.724670 
	C3375.931885,811.887390 3401.818115,813.971130 3427.696289,816.146729 
	C3470.808105,819.771179 3514.116699,820.891785 3557.050537,826.869812 
	C3574.187988,829.255981 3591.483154,830.629700 3608.744629,831.981079 
	C3648.567627,835.098694 3688.441162,837.592041 3728.243652,840.940308 
	C3786.634033,845.852234 3844.981201,851.281738 3903.344971,856.508179 
	C3925.233154,858.468140 3947.127441,860.366028 3968.999756,862.490784 
	C3999.485596,865.452332 4029.921387,868.967712 4060.435547,871.583374 
	C4107.521973,875.619751 4154.718262,878.025330 4201.750977,883.135925 
	C4252.704590,888.672546 4303.919922,891.759521 4354.988281,896.282043 
	C4386.828125,899.101685 4418.600098,902.684570 4450.417480,905.771851 
	C4480.900879,908.729675 4511.373535,911.873413 4541.907227,914.205383 
	C4563.144043,915.827454 4584.528320,915.558350 4605.752441,917.292053 
	C4648.875977,920.814819 4691.949707,924.970398 4735.017090,929.146545 
	C4782.080078,933.710083 4829.106445,938.639404 4876.157715,943.322205 
	C4935.136719,949.192017 4994.157715,954.653076 5053.097656,960.889832 
	C5104.104980,966.287292 5155.117676,971.333801 5206.435547,972.387939 
	C5235.022461,972.975098 5263.526367,976.721680 5292.198242,974.336365 
	C5306.040039,973.184753 5319.934570,972.662170 5334.425781,971.818604 
	C5349.897461,935.189087 5366.012207,899.402405 5380.254395,862.885254 
	C5427.401855,741.993774 5473.875000,620.839233 5520.588867,499.778259 
	C5520.822754,499.173157 5520.967773,498.422241 5520.827148,497.815155 
	C5520.688477,497.218445 5520.131836,496.718689 5519.386719,495.635834 
	C5518.182129,495.000214 5516.548828,493.551880 5514.733887,493.268616 
	C5485.799805,488.752838 5456.961914,483.180206 5427.860352,480.277100 
	C5387.470215,476.247772 5346.856934,474.502350 5306.379395,471.275299 
	C5285.163086,469.583832 5264.044434,466.700134 5242.859863,464.570862 
	C5223.064941,462.581238 5203.371094,457.917999 5183.282227,462.933289 
	C5179.786621,463.805847 5175.500977,462.285614 5171.755371,461.243011 
	C5158.840332,457.648041 5145.735352,455.703430 5132.325684,455.608246 
	C5117.667969,455.504211 5102.954102,455.997986 5088.364258,454.905273 
	C5047.202637,451.822510 5006.092285,448.060150 4961.272461,444.178955 
M5608.403809,4489.961426 
	C5610.723633,4487.701172 5614.075684,4485.860352 5615.192383,4483.111328 
	C5621.827637,4466.779297 5632.717285,4453.361328 5643.567383,4439.841797 
	C5651.905762,4429.452637 5660.119141,4418.955566 5668.129883,4408.312012 
	C5705.790527,4358.273438 5743.345703,4308.155762 5780.984375,4258.101074 
	C5785.796387,4251.701660 5790.292969,4245.360352 5792.619629,4237.383789 
	C5794.018555,4232.588867 5797.958984,4228.533203 5800.768066,4224.152344 
	C5802.522461,4221.416992 5805.071777,4218.915527 5805.925293,4215.926270 
	C5810.009766,4201.626465 5817.623047,4189.064453 5825.178711,4176.560059 
	C5837.189941,4156.680176 5843.192383,4135.190918 5844.275391,4112.172363 
	C5845.024902,4096.224121 5845.409180,4080.255371 5846.388184,4064.322266 
	C5847.979980,4038.410645 5850.355957,4012.541504 5851.630371,3986.616699 
	C5854.276855,3932.778320 5857.151855,3878.934570 5858.593750,3825.057373 
	C5860.625000,3749.170166 5861.469238,3673.250732 5862.757812,3597.344238 
	C5863.153809,3574.034668 5863.501465,3550.721924 5863.596191,3527.409668 
	C5863.899414,3452.771973 5864.092773,3378.133789 5864.227051,3303.495605 
	C5864.232422,3300.586670 5865.766113,3296.736572 5860.654785,3294.950684 
	C5846.560547,3310.565430 5832.228516,3326.241943 5818.114258,3342.112793 
	C5700.379883,3474.497559 5582.489746,3606.744141 5465.060547,3739.398682 
	C5402.808594,3809.721191 5342.630859,3881.916016 5279.278320,3951.219482 
	C5187.583008,4051.526855 5098.499023,4154.122559 5008.728027,4256.103516 
	C4867.437012,4416.612793 4727.647461,4578.442871 4587.191406,4739.687500 
	C4545.189941,4787.905273 4503.121582,4836.064941 4460.988770,4884.167969 
	C4455.613281,4890.305664 4451.827637,4896.457031 4451.643555,4905.236816 
	C4450.944824,4938.505859 4449.054688,4971.751465 4448.459473,5005.020508 
	C4447.113770,5080.265137 4446.239258,5155.518555 4445.242676,5230.769043 
	C4444.854492,5260.079102 4444.745605,5289.392090 4444.346191,5318.701172 
	C4443.356445,5391.284668 4442.453613,5463.870605 4441.171875,5536.448730 
	C4440.113281,5596.361816 4438.752441,5656.271484 4437.160645,5716.172852 
	C4436.099609,5756.095703 4434.624512,5796.010742 4432.867188,5835.908691 
	C4432.224121,5850.506836 4430.125977,5865.037109 4428.885254,5879.614746 
	C4427.198242,5899.432129 4422.815430,5919.218750 4427.883789,5939.153320 
	C4428.641602,5942.132324 4427.879395,5946.055176 4433.717773,5946.800293 
	C4449.199219,5934.325684 4463.411621,5919.447754 4476.344238,5903.373047 
	C4494.719727,5880.533691 4512.628906,5857.319824 4530.928223,5834.418457 
	C4661.944824,5670.454102 4793.116699,5506.612793 4924.001953,5342.543457 
	C4968.458496,5286.815430 5011.494141,5229.943848 5056.456543,5174.632812 
	C5195.150391,5004.019043 5334.471680,4833.915527 5473.464844,4663.544922 
	C5477.202148,4658.963379 5481.277832,4653.980469 5482.905273,4648.503418 
	C5485.697754,4639.106934 5491.416504,4632.062500 5497.560059,4625.037109 
	C5503.697754,4618.018066 5510.056152,4611.177246 5515.921875,4603.937500 
	C5546.120605,4566.668457 5576.190918,4529.295410 5608.403809,4489.961426 
M3521.356689,2344.476807 
	C3515.397705,2343.829346 3509.415283,2343.346191 3503.483154,2342.508057 
	C3450.749512,2335.056885 3398.072266,2327.188721 3345.281982,2320.166504 
	C3307.666260,2315.162598 3269.899902,2311.298096 3232.206299,2306.875244 
	C3189.227539,2301.832275 3146.247314,2296.801025 3103.283447,2291.633057 
	C3079.484863,2288.770264 3055.533691,2286.665527 3031.974121,2282.426758 
	C2972.973145,2271.811523 2913.510742,2264.525391 2854.168945,2256.357422 
	C2806.682373,2249.821289 2759.152832,2243.596680 2711.626953,2237.349365 
	C2693.862549,2235.014404 2676.054932,2233.006592 2657.254395,2230.726807 
	C2637.923096,2255.745850 2611.265869,2273.614258 2596.102539,2301.765137 
	C2594.561035,2304.627197 2591.897949,2306.894531 2589.708984,2309.397461 
	C2571.297363,2330.451172 2552.798584,2351.429688 2534.548828,2372.622803 
	C2532.200195,2375.350586 2531.124512,2379.174316 2529.706543,2381.998047 
	C2535.016602,2387.997559 2540.604492,2388.827637 2546.937988,2388.378662 
	C2569.731201,2386.762939 2592.140869,2390.091309 2614.393555,2394.482666 
	C2648.344482,2401.181885 2682.165527,2408.561279 2716.180664,2414.906738 
	C2751.637207,2421.521484 2786.163086,2431.299561 2819.681396,2444.392090 
	C2892.389160,2472.791992 2958.637451,2511.476074 3013.693604,2567.782959 
	C3061.614746,2616.793213 3093.606934,2673.801270 3102.751953,2742.529053 
	C3103.319580,2746.794678 3104.385254,2750.994385 3105.536865,2756.836914 
	C3113.099854,2753.319336 3119.528809,2751.296143 3124.881836,2747.680420 
	C3156.408936,2726.385010 3190.513916,2709.621826 3223.599609,2691.085449 
	C3285.156738,2656.598389 3350.674316,2633.349854 3420.656494,2623.249756 
	C3455.576660,2618.209961 3490.573486,2613.685059 3525.448486,2608.355957 
	C3559.154541,2603.206055 3592.981934,2601.439941 3627.031250,2602.215820 
	C3645.683105,2602.641113 3664.363770,2601.897461 3683.011475,2602.410156 
	C3699.636963,2602.867188 3716.265869,2603.976318 3732.836670,2605.439697 
	C3751.402100,2607.079102 3769.859619,2610.070312 3788.441650,2611.357422 
	C3827.718750,2614.077637 3866.402344,2620.218750 3904.856201,2628.559326 
	C3965.842285,2641.787354 4023.692139,2662.817871 4077.242188,2695.172852 
	C4101.761230,2709.987061 4126.576172,2724.362305 4147.212402,2744.648926 
	C4156.241699,2753.525635 4165.444824,2762.242188 4174.144043,2771.434082 
	C4208.416504,2807.649170 4235.095703,2848.679199 4252.479980,2895.598877 
	C4257.129395,2908.147461 4261.605957,2920.526611 4259.830078,2934.342529 
	C4259.063477,2940.312500 4259.726074,2946.425049 4266.878418,2951.032715 
	C4272.054688,2948.495850 4278.036621,2945.797607 4283.804688,2942.699463 
	C4318.983887,2923.803467 4354.033203,2904.663574 4389.286133,2885.906738 
	C4419.950684,2869.591553 4451.595215,2855.631592 4486.182617,2849.937988 
	C4503.255371,2847.127441 4520.484375,2845.278564 4537.626465,2842.878418 
	C4581.151367,2836.784424 4624.692871,2830.806396 4668.174316,2824.417236 
	C4691.307129,2821.018066 4714.475098,2819.824707 4737.845215,2819.972656 
	C4777.157227,2820.221680 4816.475098,2819.442139 4855.789062,2819.545410 
	C4871.744141,2819.587158 4887.865234,2819.576172 4903.616211,2821.735596 
	C4943.839844,2827.249756 4983.915039,2833.864258 5024.015137,2840.253174 
	C5045.687988,2843.706055 5067.553223,2846.488281 5088.872559,2851.516602 
	C5138.386230,2863.195801 5185.214355,2882.466064 5229.593262,2907.046875 
	C5281.951172,2936.047363 5335.074707,2964.161621 5377.800293,3007.551514 
	C5385.394531,3015.263672 5394.851562,3019.781738 5406.046875,3021.088135 
	C5433.814941,3024.329102 5461.477539,3028.476807 5489.239746,3031.776367 
	C5521.629883,3035.625732 5554.064453,3039.120850 5586.510742,3042.472656 
	C5617.637207,3045.688232 5648.770020,3048.936035 5679.959473,3051.418701 
	C5717.113281,3054.376465 5754.327148,3056.586914 5791.524902,3058.960449 
	C5795.267578,3059.199219 5799.080566,3058.333496 5802.543457,3058.010254 
	C5804.738770,3049.282471 5801.875977,3042.170166 5799.344238,3035.524658 
	C5791.701172,3015.457520 5788.192871,2994.470459 5784.065430,2973.593750 
	C5780.838867,2957.270020 5778.136719,2940.821289 5774.291504,2924.644531 
	C5753.515137,2837.254883 5732.483887,2749.925537 5711.409668,2662.607178 
	C5710.360840,2658.261230 5708.090820,2654.209717 5706.697266,2650.778320 
	C5687.767090,2643.735352 5669.099609,2641.782715 5650.588867,2640.967529 
	C5614.464355,2639.376221 5579.151367,2632.792236 5544.044434,2625.213867 
	C5505.016602,2616.789307 5466.104492,2608.129883 5426.538086,2602.331543 
	C5352.121582,2591.426758 5277.859863,2579.471436 5203.509766,2568.107910 
	C5146.254883,2559.357178 5088.992676,2550.648926 5031.680176,2542.286865 
	C4986.886719,2535.751221 4942.002930,2529.837646 4897.175781,2523.531006 
	C4862.906250,2518.710205 4828.665527,2513.683838 4794.405762,2508.791992 
	C4760.832520,2503.997803 4727.694824,2495.865723 4693.509766,2495.692383 
	C4690.227539,2495.675781 4686.949707,2494.624023 4683.671387,2494.045410 
	C4639.071777,2486.173828 4594.344238,2479.380615 4549.186523,2475.350342 
	C4520.686035,2472.806152 4492.295410,2468.939453 4463.899902,2465.318359 
	C4431.539551,2461.191650 4399.226074,2456.692139 4366.895996,2452.330566 
	C4314.114746,2445.210693 4261.350098,2437.967285 4208.552734,2430.971191 
	C4159.713867,2424.499756 4110.848633,2418.227539 4061.980957,2411.974609 
	C4024.342041,2407.158447 3986.668701,2402.608154 3949.034424,2397.755615 
	C3914.033936,2393.242676 3879.073975,2388.418945 3844.079834,2383.855469 
	C3809.097656,2379.293457 3774.113037,2374.742188 3739.097412,2370.447266 
	C3698.789795,2365.502686 3658.443604,2360.874023 3618.121094,2356.051025 
	C3587.051270,2352.334961 3555.992188,2348.530518 3521.356689,2344.476807 
M4767.913574,3954.952393 
	C4760.218750,3918.892578 4747.436523,3884.748779 4729.098633,3852.747070 
	C4725.806641,3847.001709 4722.218750,3841.300049 4717.972168,3836.246582 
	C4666.361328,3774.832520 4605.683105,3724.424561 4533.762207,3688.584961 
	C4500.465820,3671.992188 4465.938477,3657.807373 4431.650391,3643.283203 
	C4380.483887,3621.609619 4327.491699,3607.403564 4271.798340,3602.535156 
	C4209.900391,3597.124268 4148.041016,3596.781982 4086.238281,3601.210938 
	C4027.771484,3605.400635 3969.880371,3614.511719 3912.795410,3628.174805 
	C3841.997314,3645.119873 3773.582520,3668.588623 3708.959473,3702.510010 
	C3685.314697,3714.921875 3662.586182,3728.485840 3642.541992,3746.467285 
	C3622.220215,3764.697998 3601.415039,3782.437500 3580.146240,3799.553223 
	C3554.861084,3819.900391 3534.839844,3844.687988 3517.918457,3871.933594 
	C3506.359131,3890.544678 3496.219727,3910.104736 3486.431152,3929.732178 
	C3473.245117,3956.171875 3465.661133,3984.277588 3462.802979,4013.825439 
	C3457.482910,4068.822754 3469.522949,4119.548340 3498.700684,4166.274414 
	C3524.170410,4207.061523 3559.884033,4235.973145 3603.239014,4256.055664 
	C3647.344238,4276.485840 3692.139893,4295.135742 3738.464111,4309.984863 
	C3802.098389,4330.383789 3867.061279,4343.771484 3933.849854,4348.280762 
	C3969.044189,4350.657715 4004.134033,4354.541504 4039.313477,4357.181152 
	C4067.826660,4359.320312 4096.385742,4361.375977 4124.957520,4362.042480 
	C4146.869629,4362.554199 4168.873535,4361.425293 4190.763184,4359.944824 
	C4209.998047,4358.643555 4229.311523,4356.855957 4248.271973,4353.490723 
	C4289.535645,4346.164062 4330.575684,4337.588379 4371.747559,4329.736816 
	C4392.673828,4325.746582 4413.300781,4321.010742 4433.447266,4313.762695 
	C4484.354004,4295.446289 4533.010254,4272.464355 4579.425781,4244.784668 
	C4629.402344,4214.980469 4675.544922,4180.265137 4716.117676,4138.231445 
	C4744.162598,4109.176270 4764.479980,4076.288574 4770.359863,4035.886963 
	C4774.118652,4010.059326 4773.762207,3984.090576 4767.913574,3954.952393 
M3345.930176,3912.001953 
	C3372.189697,3890.086182 3395.274414,3865.397461 3412.936523,3835.889648 
	C3427.890869,3810.905029 3437.152100,3783.958496 3439.416504,3754.997314 
	C3442.089844,3720.808594 3437.989258,3687.158691 3427.913330,3654.362305 
	C3416.999268,3618.839844 3399.766846,3586.743164 3373.649902,3560.043213 
	C3357.357910,3543.387695 3340.229492,3527.541016 3323.261963,3511.559082 
	C3315.030518,3503.805664 3306.772461,3495.948242 3297.723633,3489.217529 
	C3257.820557,3459.536133 3214.197754,3437.022949 3166.055420,3424.083008 
	C3140.373779,3417.180420 3114.469971,3410.918457 3088.404297,3405.668213 
	C3036.265381,3395.166748 2985.203857,3379.612549 2931.969238,3374.100342 
	C2898.057129,3370.589355 2864.168457,3369.419922 2830.250488,3370.654297 
	C2774.935303,3372.667725 2720.190186,3380.722900 2665.797607,3390.413086 
	C2629.159912,3396.940186 2592.971436,3406.028076 2556.649414,3414.268555 
	C2536.548584,3418.829102 2516.192871,3422.797607 2496.652832,3429.178711 
	C2465.681396,3439.292969 2435.378418,3451.434814 2404.644287,3462.300049 
	C2368.331543,3475.136719 2335.829590,3494.394043 2307.815674,3520.643311 
	C2279.626709,3547.056885 2252.318604,3574.414062 2224.796875,3601.532471 
	C2221.060791,3605.213379 2217.869629,3609.642090 2215.204590,3614.181885 
	C2203.409912,3634.272217 2191.517822,3654.321777 2180.365967,3674.770508 
	C2157.045166,3717.533447 2144.130371,3763.203369 2142.901367,3812.097900 
	C2142.384033,3832.675537 2146.101318,3851.848633 2158.569824,3868.681152 
	C2165.700195,3878.307129 2172.604004,3888.143311 2180.322021,3897.283203 
	C2198.475586,3918.780273 2219.915771,3936.789307 2242.424072,3953.492676 
	C2299.458496,3995.817871 2362.214355,4027.815430 2427.486084,4055.163818 
	C2432.966064,4057.460205 2438.916748,4058.733154 2444.738281,4060.097900 
	C2477.769043,4067.841797 2510.808105,4075.552979 2543.880371,4083.116943 
	C2599.226074,4095.774414 2655.177734,4103.213379 2712.080322,4102.314941 
	C2718.071777,4102.220215 2724.068604,4102.450684 2730.062988,4102.541016 
	C2773.980957,4103.201660 2817.851807,4105.232910 2861.769287,4100.517090 
	C2901.533691,4096.247559 2940.710938,4090.054932 2979.585693,4080.198242 
	C3065.083984,4058.520020 3147.848877,4030.077637 3226.061035,3988.878174 
	C3267.401123,3967.101562 3307.476318,3943.490723 3345.930176,3912.001953 
M900.398315,3580.694580 
	C914.587097,3619.936035 938.930481,3651.788086 970.852478,3678.283691 
	C997.157349,3700.116943 1025.787842,3718.230713 1057.037842,3731.932129 
	C1075.285522,3739.932373 1093.808960,3747.693359 1112.854858,3753.407227 
	C1160.622070,3767.737305 1208.387695,3782.385254 1256.853394,3793.983154 
	C1301.442383,3804.653809 1346.823364,3812.233643 1392.088623,3819.775879 
	C1418.282227,3824.139893 1444.891968,3827.533447 1471.393188,3828.191895 
	C1519.996826,3829.399902 1568.658813,3828.292480 1617.296143,3828.062500 
	C1623.949707,3828.031006 1630.687134,3828.072510 1637.238892,3827.095459 
	C1670.140625,3822.190430 1703.181641,3817.932861 1735.823853,3811.634766 
	C1800.264893,3799.200684 1861.554199,3777.724121 1918.748657,3744.987793 
	C1976.884155,3711.712646 2029.444458,3671.005859 2078.261230,3625.457520 
	C2091.304688,3613.287109 2102.473389,3598.865723 2113.182861,3584.494141 
	C2128.039062,3564.557373 2138.284912,3542.119629 2143.375732,3517.661377 
	C2150.380127,3484.010254 2151.113525,3450.116699 2143.675293,3416.523926 
	C2137.328613,3387.861572 2128.853271,3359.812256 2109.602539,3336.476807 
	C2107.517334,3333.948730 2104.879395,3330.988281 2104.599609,3328.029785 
	C2103.833740,3319.927490 2098.710205,3315.022949 2093.646484,3309.680176 
	C2084.945557,3300.499756 2076.605225,3290.978271 2068.039795,3281.667969 
	C2038.962402,3250.062500 2006.635376,3222.920898 1967.673096,3203.737305 
	C1929.482422,3184.934082 1892.376831,3163.938965 1854.384888,3144.716797 
	C1819.350220,3126.990234 1783.602905,3110.738281 1745.590454,3100.181885 
	C1687.762573,3084.122314 1628.655029,3081.895996 1569.281128,3085.422607 
	C1527.452026,3087.907715 1485.690918,3091.917969 1443.997925,3096.205078 
	C1408.242554,3099.881348 1372.624634,3105.158691 1337.797119,3114.266357 
	C1263.727295,3133.636475 1190.783569,3156.414307 1120.345093,3186.816406 
	C1097.600586,3196.633057 1075.993652,3208.146973 1055.915649,3222.566895 
	C1005.049683,3259.097168 962.843811,3303.984131 927.277344,3355.387451 
	C906.010620,3386.124023 891.936096,3419.221436 889.747559,3457.037598 
	C887.392029,3497.739990 886.014160,3538.258057 900.398315,3580.694580 
M1842.976929,1450.982300 
	C1886.830933,1551.620850 1930.373291,1652.396729 1974.625732,1752.859741 
	C2019.676636,1855.135620 2061.855225,1958.701050 2111.611816,2058.879150 
	C2117.493408,2070.720947 2123.381348,2082.684814 2124.535400,2096.413574 
	C2124.961426,2101.482910 2127.848145,2106.466309 2130.138672,2111.236572 
	C2138.202148,2128.030029 2146.673096,2144.629150 2154.666748,2161.455322 
	C2180.361816,2215.541992 2205.896729,2269.704834 2231.529785,2323.821045 
	C2237.509277,2336.444824 2242.909180,2349.414307 2249.825439,2361.510254 
	C2269.471680,2395.870605 2261.487549,2395.104980 2307.361084,2391.440674 
	C2326.623047,2389.902100 2345.711914,2387.514648 2365.063721,2388.789795 
	C2381.582764,2389.878418 2394.223633,2383.651123 2404.931641,2370.606689 
	C2438.743408,2329.418701 2473.449951,2288.966797 2507.531738,2247.998535 
	C2529.260254,2221.879395 2550.215820,2195.114258 2572.101562,2169.129883 
	C2579.966309,2159.792236 2581.818848,2150.693115 2576.735107,2139.801514 
	C2574.205811,2134.382324 2572.120117,2128.757568 2569.749512,2123.262451 
	C2510.975342,1987.020264 2452.506348,1850.645264 2393.332764,1714.576904 
	C2303.383789,1507.741333 2213.016846,1301.087280 2122.674072,1094.423096 
	C2091.494629,1023.097656 2060.198975,951.818176 2028.220825,880.849182 
	C2018.676514,859.667969 2006.591309,839.635071 1995.765991,819.025818 
	C1992.404541,812.626343 1987.383911,808.994324 1980.181030,808.039185 
	C1970.953613,806.815491 1961.807861,804.779175 1952.550903,804.015686 
	C1930.663452,802.210571 1908.724487,801.041931 1886.818848,799.443542 
	C1867.568237,798.039001 1848.145264,797.608215 1829.131226,794.625366 
	C1783.041870,787.395020 1736.665527,783.448547 1690.229980,779.575500 
	C1659.068848,776.976440 1628.068848,772.494934 1596.931152,769.547729 
	C1578.398804,767.793701 1559.744019,767.276245 1541.132690,766.469177 
	C1538.164429,766.340454 1535.135010,767.615906 1530.324341,768.619751 
	C1566.425537,845.261047 1603.878662,919.331482 1638.708008,994.632080 
	C1673.338257,1069.502319 1707.249634,1144.710083 1740.897949,1220.028198 
	C1774.817749,1295.954468 1808.026489,1372.198608 1842.976929,1450.982300 
M2154.997803,3140.049316 
	C2216.181152,3149.721924 2277.796631,3155.929199 2339.342285,3162.602539 
	C2365.782959,3165.469727 2392.266602,3167.984863 2419.022705,3167.630859 
	C2469.661621,3166.960449 2520.320557,3167.812988 2570.961914,3167.234863 
	C2588.873291,3167.030518 2607.053467,3166.069092 2624.605713,3162.767578 
	C2718.891113,3145.033447 2802.484863,3104.369385 2875.348389,3042.125244 
	C2889.940186,3029.659912 2904.086426,3015.841797 2915.248047,3000.349365 
	C2947.159668,2956.055664 2977.467529,2910.605225 3008.268066,2865.515625 
	C3010.436768,2862.340820 3012.361816,2858.530029 3012.909912,2854.795898 
	C3015.911621,2834.343750 3016.984863,2813.988281 3013.664795,2793.242676 
	C3006.414551,2747.937744 2986.603760,2708.590820 2959.157959,2672.604004 
	C2935.190918,2641.178467 2906.889893,2613.951904 2876.374512,2589.025146 
	C2862.464111,2577.662598 2848.780762,2565.540283 2833.336914,2556.637939 
	C2802.172119,2538.673096 2769.151611,2524.581055 2734.173096,2515.216064 
	C2690.371826,2503.489014 2645.480225,2497.316650 2601.238525,2487.900391 
	C2582.783936,2483.972656 2564.329590,2483.294678 2545.653076,2483.418945 
	C2495.013428,2483.756348 2444.372314,2483.821289 2393.732910,2484.199951 
	C2385.776855,2484.259766 2377.793213,2485.101807 2369.882812,2486.074707 
	C2332.225586,2490.707275 2294.566650,2495.337158 2256.953125,2500.309082 
	C2229.907959,2503.883789 2202.697510,2506.799316 2175.971191,2512.083984 
	C2083.948730,2530.280762 2004.784668,2573.093262 1938.156494,2639.093750 
	C1935.327148,2641.896729 1931.747925,2644.557129 1930.304810,2648.026855 
	C1926.338379,2657.563232 1918.783936,2664.218994 1912.750000,2672.097900 
	C1902.628418,2685.313965 1892.088135,2698.264648 1882.793579,2712.048096 
	C1857.638794,2749.352051 1838.433960,2789.378662 1830.117065,2833.993652 
	C1824.475464,2864.258057 1823.155762,2894.934082 1825.094604,2925.495605 
	C1827.289429,2960.091797 1839.255859,2991.609863 1860.196167,3019.599365 
	C1865.975708,3027.324463 1872.837158,3032.631836 1881.773438,3036.411621 
	C1921.612305,3053.263184 1961.182251,3070.749023 2000.935913,3087.804443 
	C2022.325562,3096.981201 2043.474854,3106.981445 2065.478271,3114.398193 
	C2093.799805,3123.944336 2122.869141,3131.271484 2154.997803,3140.049316 
M5219.467773,3014.411865 
	C5205.360352,3005.603027 5191.640625,2996.086426 5177.076172,2988.112549 
	C5123.954590,2959.028809 5066.580078,2942.264893 5007.206543,2932.388428 
	C4972.439453,2926.605469 4937.319824,2922.924316 4902.344238,2918.413818 
	C4852.698730,2912.011475 4802.831055,2910.005127 4752.837891,2911.820801 
	C4713.554688,2913.247803 4674.647461,2918.725586 4635.635254,2923.235107 
	C4580.599121,2929.596436 4526.759766,2941.310791 4473.622559,2956.610107 
	C4439.718262,2966.371826 4406.371582,2977.724609 4374.524902,2993.074951 
	C4368.566895,2995.946533 4362.522461,2998.983643 4357.291016,3002.960693 
	C4333.432129,3021.100342 4309.486816,3039.158447 4286.255859,3058.084717 
	C4256.137207,3082.623047 4230.129395,3111.072754 4209.016113,3143.821777 
	C4193.769531,3167.470703 4181.253418,3192.602295 4174.559082,3219.876465 
	C4169.503906,3240.471924 4167.370117,3261.804932 4164.307129,3282.863770 
	C4160.685547,3307.761230 4166.235840,3331.892822 4171.725586,3355.866455 
	C4173.321289,3362.835693 4176.927734,3369.616699 4180.807617,3375.724854 
	C4186.141602,3384.122314 4192.232910,3392.119873 4198.669434,3399.721191 
	C4217.278320,3421.698730 4240.152344,3439.110352 4261.684082,3457.971436 
	C4269.393066,3464.724121 4277.696289,3469.000244 4287.776855,3471.272217 
	C4298.073242,3473.592285 4308.078613,3477.551758 4317.906738,3481.542725 
	C4353.036621,3495.808105 4387.898438,3510.742676 4423.119141,3524.777100 
	C4482.151855,3548.300293 4543.720215,3562.291992 4606.391113,3571.582031 
	C4629.406250,3574.993652 4652.621094,3578.718018 4675.795898,3579.087891 
	C4748.399902,3580.247314 4821.028320,3579.897949 4893.646973,3580.058838 
	C4899.625977,3580.072021 4905.820312,3580.437744 4911.550781,3579.092285 
	C4949.724121,3570.129639 4988.668945,3564.350098 5025.921387,3551.562012 
	C5041.645508,3546.164307 5057.508301,3541.155273 5073.141602,3535.509277 
	C5110.040039,3522.183350 5147.470215,3510.268311 5182.379883,3491.832764 
	C5233.932617,3464.608154 5277.709473,3428.710449 5310.333984,3379.937744 
	C5314.405762,3373.849854 5318.549805,3367.804688 5322.842285,3361.871094 
	C5328.725586,3353.737793 5332.771973,3344.751221 5336.938477,3335.631836 
	C5349.087891,3309.039551 5353.324707,3280.916992 5354.636230,3252.210449 
	C5355.640625,3230.237305 5354.758301,3208.295166 5349.794922,3186.680420 
	C5342.046387,3152.942139 5326.396973,3123.113525 5305.060059,3096.152588 
	C5280.955078,3065.695557 5253.360352,3038.805176 5219.467773,3014.411865 
M5952.342773,2798.143799 
	C5994.534180,2699.225098 6025.798340,2596.948730 6047.252930,2491.584961 
	C6054.609375,2455.457764 6058.861816,2419.159424 6055.418945,2382.407471 
	C6053.124023,2357.906494 6050.277344,2333.324219 6045.473633,2309.217285 
	C6034.547852,2254.390137 6023.086426,2199.641113 6010.366211,2145.205566 
	C5980.380859,2016.885376 5949.860840,1888.687378 5918.951172,1760.586182 
	C5876.958008,1586.548828 5834.819336,1412.544434 5791.931641,1238.726074 
	C5764.667969,1128.230713 5736.256348,1018.014954 5707.755371,907.829956 
	C5684.419922,817.613586 5660.506836,727.537292 5628.509277,639.863464 
	C5623.947266,627.362427 5620.037109,614.624756 5615.640625,602.061218 
	C5612.774414,593.870239 5609.107422,586.228577 5600.056641,583.700073 
	C5598.331543,585.217834 5596.939453,585.868591 5596.487793,586.922424 
	C5580.228027,624.835815 5563.549316,662.580078 5547.985840,700.778687 
	C5521.619141,765.493774 5496.017090,830.519958 5469.991211,895.374390 
	C5455.111328,932.455322 5440.946777,969.725220 5431.354492,1008.652893 
	C5425.798340,1031.201172 5425.401855,1053.464844 5430.830566,1075.841675 
	C5435.063477,1093.291870 5440.037109,1110.561035 5444.534180,1127.948853 
	C5465.862793,1210.410400 5487.425293,1292.812866 5508.367188,1375.372559 
	C5535.695801,1483.107300 5562.323242,1591.019897 5589.610840,1698.765137 
	C5622.290527,1827.799194 5655.356934,1956.735352 5684.833496,2086.554443 
	C5705.908691,2179.370117 5726.916992,2272.200928 5748.036133,2365.006348 
	C5759.851074,2416.926758 5771.292969,2468.941162 5783.874512,2520.676758 
	C5799.599609,2585.338379 5816.318848,2649.758301 5832.617188,2714.280762 
	C5849.894043,2782.682373 5867.170898,2851.084229 5884.491699,2919.475098 
	C5885.388672,2923.017822 5885.327637,2927.413086 5891.054688,2928.304932 
	C5900.971680,2919.159668 5906.055664,2906.773926 5911.316895,2894.644531 
	C5924.822266,2863.510986 5937.991211,2832.231689 5952.342773,2798.143799 
M3524.174561,3366.347412 
	C3559.438721,3367.815186 3594.607910,3368.195312 3629.889160,3364.858154 
	C3689.590820,3359.210938 3748.921875,3351.057373 3807.736572,3339.664307 
	C3880.259521,3325.616211 3945.750000,3295.855957 4002.264648,3247.634277 
	C4018.475098,3233.802490 4034.517822,3219.758545 4050.256592,3205.394287 
	C4065.020264,3191.920166 4079.699707,3178.183105 4090.454590,3161.126709 
	C4114.954102,3122.274658 4139.022949,3083.151367 4163.429199,3044.239990 
	C4170.345215,3033.213135 4173.832520,3021.132324 4174.534668,3008.418945 
	C4174.932129,3001.210449 4173.312500,2993.882324 4172.515137,2986.617676 
	C4166.637695,2933.063477 4146.527832,2886.509277 4105.791504,2849.900879 
	C4087.469971,2833.436279 4069.613770,2816.455078 4051.474365,2799.786621 
	C4042.227295,2791.289551 4033.608398,2781.846191 4019.883057,2780.350098 
	C4016.764893,2780.010498 4013.882812,2777.621094 4010.863770,2776.237305 
	C4000.611328,2771.538818 3990.542969,2766.360840 3980.046143,2762.289307 
	C3955.245361,2752.669434 3930.358398,2743.240967 3905.280518,2734.373291 
	C3879.519531,2725.263428 3852.880859,2719.515869 3825.848877,2715.576904 
	C3793.555420,2710.871338 3761.108154,2707.784912 3728.521973,2706.101807 
	C3689.984131,2704.111816 3651.466309,2701.160645 3612.904053,2700.355713 
	C3563.567383,2699.325928 3514.534424,2704.113281 3465.736328,2711.546631 
	C3415.016357,2719.272217 3364.826904,2729.352783 3315.811279,2744.593018 
	C3283.349121,2754.686035 3251.375244,2766.464111 3223.007812,2785.623291 
	C3131.947998,2847.125000 3065.828857,2928.503174 3029.612793,3032.838867 
	C3017.099854,3068.887939 3010.545166,3105.950439 3015.018799,3144.653320 
	C3019.359619,3182.206299 3034.266357,3213.681641 3063.466309,3237.781250 
	C3086.573730,3256.852783 3110.103271,3275.425537 3133.782227,3293.785400 
	C3141.634766,3299.874023 3150.340088,3304.951416 3158.995361,3309.896484 
	C3175.891113,3319.549561 3193.901123,3326.193115 3213.332275,3328.703613 
	C3231.814453,3331.092041 3250.278076,3333.628418 3268.740479,3336.167969 
	C3303.025146,3340.883301 3337.299805,3345.674805 3371.585205,3350.385742 
	C3421.039795,3357.181641 3470.472900,3364.191162 3524.174561,3366.347412 
M3748.663574,4665.304688 
	C3785.511719,4674.287109 3822.331055,4683.390625 3859.213379,4692.230957 
	C3993.135498,4724.331543 4127.008301,4756.643555 4261.058105,4788.203125 
	C4299.896973,4797.347168 4339.256836,4804.286133 4378.406738,4812.092773 
	C4382.179688,4812.845703 4386.155762,4812.581055 4389.720703,4812.771973 
	C4395.520020,4806.025879 4400.694824,4799.969727 4405.907715,4793.947266 
	C4480.456055,4707.830078 4554.956055,4621.670898 4629.584473,4535.622559 
	C4670.161133,4488.836426 4712.321777,4443.434082 4751.198730,4395.154785 
	C4759.134766,4385.299316 4763.025879,4375.260254 4764.074219,4362.767090 
	C4767.079590,4326.953125 4771.306152,4291.243652 4774.751465,4255.463867 
	C4775.826172,4244.303711 4778.008789,4233.023438 4774.853516,4222.232422 
	C4769.815918,4218.410156 4765.914062,4219.674316 4762.043457,4223.267578 
	C4748.864746,4235.499512 4735.609863,4247.648438 4722.349609,4259.792480 
	C4689.870605,4289.537598 4656.366699,4318.014648 4617.721680,4339.597656 
	C4581.675781,4359.729492 4544.340820,4377.199707 4506.119629,4392.897949 
	C4420.176758,4428.196289 4329.865234,4443.417480 4238.103027,4452.001953 
	C4212.931641,4454.356934 4187.622070,4455.196777 4162.397949,4457.028809 
	C4120.407227,4460.078125 4078.588379,4457.714355 4036.814209,4453.511230 
	C4005.679932,4450.379395 3974.549805,4447.203125 3943.421875,4444.009766 
	C3903.725586,4439.938965 3864.200684,4435.804688 3825.385254,4425.095215 
	C3772.813965,4410.590820 3719.591553,4398.428223 3666.565918,4385.601562 
	C3652.842041,4382.281738 3639.835449,4377.836914 3627.890625,4370.124512 
	C3623.534424,4367.312012 3618.316406,4365.576172 3613.266602,4364.139160 
	C3582.284424,4355.320312 3553.520264,4341.782227 3526.554443,4324.246094 
	C3504.148438,4309.675293 3483.480957,4292.928711 3463.698730,4275.006348 
	C3460.103027,4271.749023 3456.913574,4267.158203 3449.612061,4266.948730 
	C3449.460938,4270.867676 3449.166504,4274.016113 3449.246826,4277.154785 
	C3449.723633,4295.776367 3450.944336,4314.404297 3450.706055,4333.014648 
	C3449.717041,4410.303223 3452.035156,4487.497070 3456.383301,4564.647461 
	C3456.977051,4575.182129 3457.612549,4585.733398 3461.635986,4595.563477 
	C3498.458252,4604.594238 3534.628906,4613.529785 3570.832275,4622.330078 
	C3629.014648,4636.472168 3687.218506,4650.523926 3748.663574,4665.304688 
M2400.157959,4141.831055 
	C2380.231689,4134.357910 2360.061523,4127.467773 2340.447754,4119.248535 
	C2320.830322,4111.028320 2301.465332,4102.069824 2282.551025,4092.343750 
	C2264.222168,4082.918945 2246.191895,4072.760742 2228.793457,4061.722412 
	C2210.822266,4050.320801 2193.751465,4037.497314 2176.320801,4025.248047 
	C2159.145020,4013.177979 2145.137451,3997.112793 2128.485840,3985.457520 
	C2123.973145,3987.589600 2124.519775,3990.627441 2124.408691,3993.086914 
	C2123.838379,4005.717529 2122.702393,4018.392578 2123.242676,4030.989014 
	C2124.525635,4060.910645 2126.670410,4090.795166 2128.411133,4120.697754 
	C2130.189453,4151.245605 2129.973877,4181.977051 2135.755371,4212.167969 
	C2138.898682,4228.583496 2141.306885,4244.958984 2140.438477,4261.726074 
	C2140.268555,4265.004395 2140.760254,4268.391113 2141.441895,4271.624023 
	C2143.078125,4279.380859 2147.173340,4285.014648 2155.516113,4286.568848 
	C2157.477783,4286.934082 2159.421387,4287.403320 2161.365479,4287.857910 
	C2264.379883,4311.933594 2367.399658,4335.984863 2470.405518,4360.096680 
	C2609.039551,4392.548828 2747.715332,4424.824707 2886.276367,4457.585449 
	C3039.090332,4493.716309 3191.792236,4530.320801 3344.561768,4566.641113 
	C3348.136475,4567.490723 3351.932617,4567.409668 3357.179199,4567.911133 
	C3357.179199,4561.873535 3357.179199,4557.292480 3357.179199,4552.711426 
	C3357.179443,4528.717285 3357.578125,4504.714355 3357.016846,4480.733398 
	C3356.722900,4468.158691 3355.293701,4455.539551 3353.388184,4443.091797 
	C3351.069336,4427.943359 3348.843018,4412.907715 3349.077881,4397.477051 
	C3349.878662,4344.867188 3350.296875,4292.250977 3350.761963,4239.636719 
	C3350.921143,4221.642090 3350.275879,4203.627441 3350.926758,4185.655273 
	C3351.624756,4166.385742 3353.362061,4147.150879 3354.745361,4127.908203 
	C3356.320312,4106.001953 3358.591064,4084.125732 3359.413086,4062.193359 
	C3359.877441,4049.809814 3358.037598,4037.340332 3357.250000,4025.135010 
	C3350.421631,4020.315918 3345.723389,4024.600586 3340.923096,4028.106201 
	C3277.481201,4074.438721 3207.588135,4108.306152 3133.857666,4134.530273 
	C3068.541504,4157.762207 3001.402588,4174.307129 2933.567627,4188.381348 
	C2902.794678,4194.765625 2872.078613,4197.898926 2840.607910,4197.071777 
	C2794.656250,4195.864746 2748.647461,4195.589844 2702.686523,4196.345215 
	C2663.832520,4196.983887 2625.513672,4192.602051 2587.334473,4186.860840 
	C2524.728271,4177.445801 2463.245850,4162.926758 2400.157959,4141.831055 
M2026.790283,4070.000732 
	C2026.790283,4036.687500 2027.451416,4003.357910 2026.617798,3970.065674 
	C2025.643311,3931.149414 2030.955200,3893.096924 2038.949951,3855.203369 
	C2043.206665,3835.027588 2046.633667,3814.675049 2050.319580,3794.381592 
	C2051.030762,3790.465820 2051.659912,3786.434082 2051.496826,3782.490479 
	C2051.350342,3778.953125 2053.657959,3774.649170 2048.496338,3771.352051 
	C2039.616455,3773.291016 2032.752319,3779.625000 2025.343750,3785.052734 
	C2013.006226,3794.091309 2000.879639,3803.475098 1988.070923,3811.801025 
	C1963.489136,3827.779785 1937.423828,3841.067139 1910.684448,3853.116699 
	C1849.054077,3880.889648 1784.562256,3899.152588 1718.274536,3911.432617 
	C1681.541748,3918.237549 1644.568481,3921.760254 1607.061768,3921.039795 
	C1559.774292,3920.131348 1512.453613,3920.517822 1465.152222,3920.921875 
	C1430.978516,3921.213623 1397.434692,3916.566162 1364.158936,3909.596436 
	C1310.755005,3898.410645 1257.419678,3886.894775 1204.092896,3875.345215 
	C1186.542114,3871.544189 1168.845459,3868.073975 1151.684692,3862.897217 
	C1128.785034,3855.989502 1106.348022,3847.550781 1083.703613,3839.794922 
	C1008.742981,3814.120605 938.942566,3779.143799 878.926025,3726.448486 
	C877.270081,3724.994385 874.709167,3724.570801 870.817688,3722.925781 
	C870.817688,3731.434814 870.817627,3737.995605 870.817627,3744.556152 
	C870.817566,3784.531982 871.272034,3824.515137 870.650391,3864.481201 
	C870.265076,3889.252930 871.620850,3913.798828 876.941956,3937.924072 
	C879.774719,3950.767578 878.781799,3964.541016 885.054443,3976.068359 
	C886.956726,3977.033203 888.081360,3977.861328 889.338501,3978.204102 
	C941.305908,3992.382812 993.025208,4007.573730 1045.314575,4020.448242 
	C1173.201538,4051.935791 1301.327148,4082.456787 1429.405884,4113.161621 
	C1522.540405,4135.489258 1615.701782,4157.709473 1708.945068,4179.577148 
	C1811.255737,4203.571289 1913.667480,4227.134277 2016.066162,4250.751465 
	C2021.062378,4251.904297 2026.188965,4254.123535 2032.568481,4251.798340 
	C2038.072266,4241.673828 2036.437012,4230.419434 2035.267700,4219.323730 
	C2034.572388,4212.725586 2032.785645,4206.242676 2032.094360,4199.644531 
	C2027.718384,4157.877930 2025.766235,4116.000000 2026.790283,4070.000732 
M4746.757324,3715.196533 
	C4749.632812,3718.868164 4752.547852,3722.508789 4755.377441,3726.215820 
	C4802.315918,3787.714111 4838.186523,3854.826172 4857.782227,3930.010742 
	C4861.965820,3946.062988 4865.911621,3962.441650 4867.311035,3978.895508 
	C4869.619141,4006.048340 4869.804688,4033.383545 4870.814453,4060.644531 
	C4872.982910,4119.176270 4875.090820,4177.709473 4877.308105,4236.238770 
	C4877.397949,4238.616699 4878.354980,4240.961914 4879.355957,4245.233887 
	C4888.538574,4237.881348 4894.576660,4230.101562 4901.058594,4222.841309 
	C4985.752441,4127.974121 5070.746582,4033.371582 5154.929199,3938.052246 
	C5218.845703,3865.679443 5281.662598,3792.336670 5345.105469,3719.543945 
	C5353.201660,3710.254639 5359.205078,3700.148193 5360.727051,3687.857178 
	C5362.194824,3676.003906 5364.372070,3664.057617 5364.097656,3652.201904 
	C5363.029785,3606.076172 5369.272461,3560.550293 5373.970215,3514.878418 
	C5374.921875,3505.632324 5375.619141,3496.282471 5375.355469,3487.011230 
	C5375.098633,3477.969238 5373.672363,3468.902344 5368.715332,3460.564697 
	C5358.474609,3464.243652 5352.017578,3471.122314 5345.168457,3477.231934 
	C5326.290527,3494.072998 5307.495117,3511.018066 5289.049805,3528.330811 
	C5275.850586,3540.718994 5261.417969,3551.305420 5245.914551,3560.511963 
	C5232.754395,3568.327148 5219.611328,3576.179932 5206.291504,3583.716064 
	C5158.007324,3611.033691 5107.551758,3633.139893 5053.487305,3646.324219 
	C5028.284180,3652.470703 5002.896973,3657.867188 4977.710938,3664.082764 
	C4937.452637,3674.018799 4896.414551,3678.003662 4855.187988,3679.750732 
	C4824.591309,3681.046875 4793.914062,3680.349121 4763.279785,3680.906006 
	C4750.228516,3681.142822 4737.193848,3682.312988 4721.721680,3683.197998 
	C4729.206055,3695.425049 4738.116699,3703.432617 4746.757324,3715.196533 
M305.988434,3767.978516 
	C289.638947,3780.603027 273.243073,3793.168457 256.991699,3805.917969 
	C254.623581,3807.775635 252.947754,3810.515869 250.380844,3813.514893 
	C264.884583,3820.685547 278.811859,3824.766602 292.971924,3828.065430 
	C309.169159,3831.838623 325.518829,3834.975830 341.663727,3838.951904 
	C410.809937,3855.980713 479.894318,3873.260742 549.022827,3890.361816 
	C597.466492,3902.345703 645.967285,3914.099365 694.398621,3926.132812 
	C717.629211,3931.904541 740.746216,3938.132568 763.951050,3944.010254 
	C766.258667,3944.594971 768.924683,3946.389893 771.748718,3943.229004 
	C775.753418,3935.858398 776.743042,3927.273926 774.944519,3918.649414 
	C769.443176,3892.270020 770.831299,3865.578125 770.838989,3838.955566 
	C770.848450,3806.301758 770.464355,3773.623779 771.557434,3741.000000 
	C772.918091,3700.389648 777.364502,3659.994629 782.826965,3619.720215 
	C784.705872,3605.867188 786.882141,3591.941895 787.186584,3578.011963 
	C787.739685,3552.707520 788.035828,3527.308350 786.438477,3502.075439 
	C785.284973,3483.854492 786.390198,3466.322754 790.967041,3448.762695 
	C792.233215,3443.904297 792.812683,3438.477539 788.644165,3432.704590 
	C783.953918,3435.082520 779.067749,3436.972656 774.813477,3439.810059 
	C743.230347,3460.873779 712.095398,3482.624756 680.219727,3503.231934 
	C552.575562,3585.750488 429.033325,3674.046143 305.988434,3767.978516 
M3908.797363,3407.177490 
	C3862.331543,3423.976074 3814.651123,3436.156006 3765.778320,3443.184326 
	C3715.020752,3450.483643 3664.130859,3456.866211 3613.282959,3463.527832 
	C3601.412354,3465.083008 3589.499023,3466.974121 3577.567627,3467.290771 
	C3528.301758,3468.598145 3479.020996,3469.339355 3429.747559,3470.382324 
	C3427.478516,3470.430420 3425.228516,3471.379883 3421.842773,3472.173584 
	C3437.115479,3490.028809 3452.083252,3505.998779 3465.242920,3523.340820 
	C3478.497314,3540.807129 3490.485596,3559.308105 3502.051025,3577.961670 
	C3513.652344,3596.673340 3522.687744,3616.822510 3528.943604,3637.942139 
	C3535.118896,3658.788086 3540.068604,3679.997314 3545.446777,3700.627197 
	C3554.765137,3703.012207 3559.950684,3699.835449 3564.548828,3692.651367 
	C3569.879150,3684.323486 3575.766113,3675.769531 3583.267090,3669.553223 
	C3593.946777,3660.702148 3605.742188,3652.776611 3618.071533,3646.414551 
	C3655.922363,3626.883789 3693.802490,3607.299316 3732.507568,3589.560303 
	C3788.893555,3563.718506 3847.094238,3542.583252 3908.236816,3530.866211 
	C3969.029297,3519.216309 4029.848633,3507.540527 4091.799805,3503.527344 
	C4096.946777,3503.193848 4102.024902,3501.798828 4106.708984,3500.972168 
	C4115.605957,3484.138428 4114.875000,3467.741943 4109.893066,3451.441895 
	C4106.794434,3441.303711 4102.710449,3431.376465 4098.145020,3421.794678 
	C4086.672119,3397.718262 4074.761963,3373.862061 4071.847412,3346.807373 
	C4071.776855,3346.151855 4071.551758,3345.508057 4071.357178,3344.871338 
	C4068.887939,3336.801514 4062.585938,3332.726562 4054.464844,3335.266113 
	C4048.877930,3337.013672 4043.617188,3340.149170 4038.583984,3343.266846 
	C3998.278809,3368.231934 3956.083496,3389.337158 3908.797363,3407.177490 
M5624.459473,3144.984863 
	C5582.735352,3141.077148 5541.002441,3137.263428 5499.293457,3133.202393 
	C5487.396973,3132.044189 5475.602539,3129.817871 5463.702148,3128.736572 
	C5454.743652,3127.922607 5445.260742,3125.626221 5436.772461,3132.796631 
	C5439.319824,3146.816895 5441.792969,3160.451416 5444.274902,3174.084229 
	C5447.728516,3193.054443 5450.291504,3212.244629 5454.902344,3230.929443 
	C5459.336914,3248.903564 5463.302246,3266.575684 5465.011719,3285.251709 
	C5467.080078,3307.844971 5467.822266,3330.380371 5468.207031,3352.942139 
	C5469.398926,3422.799805 5469.971191,3492.667969 5470.890137,3562.530518 
	C5470.928711,3565.475098 5469.548340,3569.274170 5474.641602,3571.465576 
	C5479.330078,3566.477539 5484.308594,3561.404785 5489.041504,3556.111816 
	C5545.364746,3493.123047 5601.691406,3430.136475 5657.933594,3367.075195 
	C5694.690918,3325.860596 5731.394531,3284.597656 5767.962402,3243.214600 
	C5785.201172,3223.706055 5800.589355,3202.847168 5811.902344,3179.241211 
	C5813.515625,3175.874512 5814.726562,3172.315186 5816.104004,3168.893311 
	C5809.232422,3162.836182 5801.838379,3160.787109 5794.777832,3161.168457 
	C5777.854004,3162.082764 5761.804199,3157.295166 5745.340820,3155.339600 
	C5733.463379,3153.928955 5721.583008,3152.451660 5709.663574,3151.510986 
	C5682.492676,3149.367188 5655.297363,3147.535400 5624.459473,3144.984863 
M2741.770996,3227.945312 
	C2679.172607,3246.904541 2615.400879,3259.573242 2550.125732,3264.809570 
	C2486.284912,3269.930908 2422.508057,3270.828125 2358.718506,3264.419678 
	C2345.474854,3263.089111 2332.237061,3261.695557 2318.994141,3260.355957 
	C2271.324707,3255.532959 2223.655273,3250.709961 2175.980957,3245.935303 
	C2173.565674,3245.693359 2171.104980,3245.904053 2166.811035,3245.904053 
	C2170.446045,3253.013916 2172.945557,3259.070801 2176.420654,3264.503418 
	C2194.826172,3293.276611 2208.463867,3324.201660 2218.926514,3356.628662 
	C2221.986816,3366.114258 2225.254395,3375.544189 2228.779785,3384.866211 
	C2235.138916,3401.681641 2241.790771,3418.225830 2239.082031,3437.019287 
	C2238.035889,3444.275635 2240.290039,3451.637451 2248.890137,3454.753906 
	C2250.562988,3453.643799 2252.353271,3452.725342 2253.824463,3451.441406 
	C2311.524902,3401.083252 2378.101318,3367.160889 2451.467773,3346.691650 
	C2510.377686,3330.255371 2569.679443,3315.192383 2628.972412,3300.170898 
	C2684.649902,3286.065674 2741.255859,3278.570312 2798.791748,3278.303711 
	C2847.384521,3278.078613 2895.975342,3277.390625 2944.565430,3276.773193 
	C2948.290527,3276.726074 2952.002197,3275.617676 2955.513428,3275.036621 
	C2957.165283,3264.165039 2953.720703,3255.429932 2949.289551,3247.225342 
	C2932.186523,3215.558105 2922.975586,3181.977539 2923.503662,3145.852783 
	C2923.530762,3144.000488 2922.538086,3142.133545 2922.077637,3140.479492 
	C2915.517578,3137.095703 2910.229004,3139.636719 2904.984619,3142.899902 
	C2885.212646,3155.203125 2865.205566,3167.141602 2845.669678,3179.807373 
	C2814.197510,3200.211426 2780.685303,3216.114990 2741.770996,3227.945312 
M1739.490356,2970.236816 
	C1737.075195,2955.162842 1733.680054,2940.168945 1732.442993,2924.999023 
	C1729.614136,2890.306885 1734.022583,2855.904297 1738.392090,2821.547363 
	C1738.935425,2817.275879 1738.466064,2812.875732 1738.466064,2806.566406 
	C1731.570557,2810.730713 1725.885742,2813.868408 1720.504517,2817.460693 
	C1682.300537,2842.964111 1644.247437,2868.694092 1605.973633,2894.092041 
	C1562.154053,2923.170166 1518.125000,2951.932861 1474.293579,2980.993408 
	C1470.737427,2983.351318 1465.299316,2984.602539 1465.717041,2990.768555 
	C1475.982422,2994.466064 1486.353882,2995.160156 1497.104370,2992.848877 
	C1520.713257,2987.773438 1544.691650,2987.814941 1568.691406,2988.095703 
	C1588.007935,2988.321777 1607.329956,2988.041260 1626.647827,2988.193359 
	C1634.628784,2988.256348 1642.692505,2988.237549 1650.567871,2989.336182 
	C1675.606201,2992.829834 1701.132812,2991.762695 1725.915771,2997.722412 
	C1732.543945,2999.316650 1739.073975,2998.068115 1745.164062,2992.137451 
	C1743.542358,2986.175537 1741.824341,2979.859375 1739.490356,2970.236816 
z"/>
</svg>