<svg xmlns="http://www.w3.org/2000/svg"
  xmlns:xlink="http://www.w3.org/1999/xlink" width="2000" zoomAndPan="magnify" viewBox="0 0 1500 1499.999933" height="2000" preserveAspectRatio="xMidYMid meet" version="1.0">
  <defs>
    <clipPath id="c3ce05fea2">
      <path d="M 853.683594 374.105469 L 928.683594 374.105469 L 928.683594 450.597656 L 853.683594 450.597656 Z M 853.683594 374.105469 " clip-rule="nonzero"/>
    </clipPath>
    <clipPath id="b9ddd199c6">
      <path d="M 0.683594 0.105469 L 75.683594 0.105469 L 75.683594 76.597656 L 0.683594 76.597656 Z M 0.683594 0.105469 " clip-rule="nonzero"/>
    </clipPath>
    <clipPath id="1ad9fc8066">
      <rect x="0" width="76" y="0" height="77"/>
    </clipPath>
  </defs>
  <path fill="#fffff5" d="M 228.660156 602.742188 C 250.609375 632.011719 273.476562 653.964844 297.257812 670.425781 C 434.453125 765.546875 596.339844 663.109375 753.660156 564.328125 C 773.78125 551.523438 793.902344 538.71875 814.023438 526.828125 L 837.804688 567.074219 C 817.683594 578.964844 798.476562 591.769531 778.355469 604.574219 C 601.828125 715.242188 320.121094 898.171875 259.757812 702.4375 Z M 1042.683594 423.476562 C 1147.867188 404.269531 1242.988281 442.683594 1322.5625 599.085938 C 1339.023438 632.011719 1350.914062 664.023438 1359.144531 696.035156 C 1381.097656 781.097656 1372.867188 860.671875 1339.023438 929.269531 C 1338.109375 930.183594 1337.195312 932.011719 1337.195312 932.925781 L 1307.925781 882.621094 C 1327.132812 829.574219 1329.878906 771.035156 1313.414062 707.925781 C 1306.097656 679.574219 1295.121094 650.304688 1280.488281 620.121094 C 1220.121094 501.21875 1147.867188 463.71875 1069.207031 469.207031 Z M 1146.949219 1103.964844 C 1113.109375 1120.425781 1075.609375 1134.144531 1034.453125 1144.207031 L 1022.5625 1098.476562 C 1059.144531 1089.328125 1092.988281 1077.4375 1124.085938 1062.804688 Z M 1146.949219 1103.964844 " fill-opacity="1" fill-rule="nonzero"/>
  <path fill="#fffff5" d="M 428.964844 552.4375 C 339.328125 541.464844 274.390625 502.132812 211.28125 526.828125 C 174.695312 541.464844 142.683594 566.160156 117.988281 597.257812 C 93.292969 629.269531 75.914062 668.597656 68.597656 712.5 C 50.304688 829.574219 103.355469 980.488281 279.878906 1118.597656 L 250.609375 1155.183594 C 58.535156 1005.183594 0.914062 836.890625 22.867188 705.183594 C 31.097656 653.046875 51.21875 606.402344 81.402344 568.902344 C 110.671875 530.488281 150 501.21875 193.902344 482.925781 C 271.644531 452.742188 365.855469 458.230469 458.230469 515.851562 C 480.183594 529.574219 501.21875 546.035156 522.257812 565.242188 Z M 428.964844 552.4375 " fill-opacity="1" fill-rule="nonzero"/>
  <path fill="#fffff5" d="M 214.9375 839.632812 C 225.914062 866.160156 235.0625 891.769531 243.292969 918.292969 C 262.5 977.742188 276.21875 1038.109375 284.453125 1098.476562 C 293.597656 1170.730469 295.425781 1242.988281 289.023438 1315.242188 C 450.914062 1237.5 623.78125 1219.207031 809.449219 1259.449219 C 844.207031 1267.683594 879.878906 1277.742188 915.546875 1289.632812 L 739.9375 1295.121094 C 571.644531 1300.609375 417.988281 1296.949219 272.5625 1377.4375 L 232.316406 1399.390625 L 237.804688 1353.660156 C 248.78125 1270.425781 248.78125 1187.195312 237.804688 1104.878906 C 229.574219 1048.171875 189.328125 993.292969 199.390625 933.839844 Z M 214.9375 839.632812 " fill-opacity="1" fill-rule="nonzero"/>
  <path fill="#fffff5" d="M 259.757812 1171.644531 C 507.621094 1071.949219 723.476562 1092.074219 937.5 1234.757812 C 895.425781 1214.632812 853.355469 1197.257812 812.195312 1184.449219 C 744.511719 1162.5 677.742188 1150.609375 610.0625 1146.949219 C 501.21875 1142.378906 386.890625 1171.644531 277.132812 1215.546875 Z M 259.757812 1171.644531 " fill-opacity="1" fill-rule="nonzero"/>
  <path fill="#fffff5" d="M 1007.925781 1347.257812 C 1014.328125 1255.792969 1018.902344 1178.964844 1011.585938 1115.855469 C 1005.183594 1055.488281 988.71875 1007.925781 954.878906 971.339844 C 915.546875 929.269531 850.609375 948.476562 767.378906 973.171875 C 669.511719 1001.523438 548.78125 1038.109375 405.183594 1000.609375 C 366.769531 989.632812 326.523438 974.085938 284.453125 951.21875 L 438.109375 964.9375 C 586.28125 977.742188 656.707031 956.707031 754.574219 927.4375 C 853.355469 898.171875 930.183594 875.304688 989.632812 939.328125 C 1030.792969 984.144531 1050.914062 1040.855469 1058.230469 1110.367188 C 1065.546875 1178.046875 1061.890625 1256.707031 1055.488281 1350 Z M 1007.925781 1347.257812 " fill-opacity="1" fill-rule="nonzero"/>
  <path fill="#fffff5" d="M 913.71875 291.769531 L 1397.5625 1129.574219 C 1413.109375 1156.097656 1403.964844 1190.855469 1376.523438 1205.488281 L 1337.195312 1229.269531 C 1310.671875 1243.902344 1275.914062 1234.757812 1260.367188 1208.230469 L 776.523438 370.425781 C 760.976562 343.902344 770.121094 309.144531 797.5625 293.597656 L 836.890625 270.730469 C 863.414062 255.183594 898.171875 264.328125 913.71875 291.769531 Z M 913.71875 291.769531 " fill-opacity="1" fill-rule="evenodd"/>
  <path fill="#fffff5" d="M 743.597656 98.78125 L 833.230469 254.269531 L 784.757812 282.621094 L 695.121094 127.132812 Z M 743.597656 98.78125 " fill-opacity="1" fill-rule="evenodd"/>
  <path fill="#fffff5" d="M 774.695312 107.925781 C 791.160156 136.28125 783.839844 169.207031 760.0625 182.925781 C 735.367188 197.5625 703.355469 186.585938 687.804688 159.144531 C 671.339844 131.707031 678.660156 97.867188 702.4375 84.144531 C 726.21875 69.511719 759.144531 80.488281 774.695312 107.925781 Z M 774.695312 107.925781 " fill-opacity="1" fill-rule="evenodd"/>
  <path fill="#fffff5" d="M 1479.878906 1371.949219 L 1390.242188 1216.464844 L 1339.9375 1245.730469 L 1429.574219 1401.21875 Z M 1479.878906 1371.949219 " fill-opacity="1" fill-rule="evenodd"/>
  <path fill="#fffff5" d="M 1486.28125 1340.855469 C 1470.730469 1313.414062 1437.804688 1302.4375 1414.023438 1316.160156 C 1390.242188 1329.878906 1382.925781 1363.71875 1399.390625 1391.160156 C 1414.9375 1418.597656 1447.867188 1429.574219 1471.644531 1415.855469 C 1495.425781 1402.132812 1502.742188 1368.292969 1486.28125 1340.855469 Z M 1486.28125 1340.855469 " fill-opacity="1" fill-rule="evenodd"/>
  <g clip-path="url(#c3ce05fea2)">
    <g transform="matrix(1, 0, 0, 1, 853, 374)">
      <g clip-path="url(#1ad9fc8066)">
        <g clip-path="url(#b9ddd199c6)">
          <path fill="#fffff5" d="M 0.683594 0.105469 L 75.683594 0.105469 L 75.683594 76.570312 L 0.683594 76.570312 Z M 0.683594 0.105469 " fill-opacity="1" fill-rule="nonzero"/>
        </g>
      </g>
    </g>
  </g>
</svg>